<svg width="200" height="52" viewBox="0 0 200 52" fill="none" xmlns="http://www.w3.org/2000/svg">
<path d="M32.7243 2.77619C21.9468 6.43647 12.7962 32.6685 8.93255 32.4651C6.86854 32.3565 5.80802 30.6399 4.92749 28.8049C4.19582 27.2801 2.37532 26.4658 1.04682 27.5125C-0.615594 28.8222 -1.03427 30.9094 5.4756 33.8886C17.4732 39.379 18.6932 12.5369 32.7243 6.23311C46.7554 -0.0707019 57.3295 3.18289 50.8224 11.7236C49.1136 13.9663 47.2703 15.5256 45.3374 16.601C37.9607 20.7054 25.0204 20.9305 25.9488 29.3208C26.0729 30.4426 26.5863 31.5162 27.6406 32.4651C33.7411 37.9555 56.9228 32.4651 60.5831 31.8551C65.8702 30.635 62.8199 26.7714 61.8032 26.1613C56.9622 23.2567 51.2964 31.8966 45.6613 32.2405C40.0569 32.5826 36.0858 32.3623 33.3702 31.7608C23.7127 29.6217 38.4515 21.9273 47.9763 19.259C62.9698 15.0585 62.733 4.05454 58.5496 1.96279C53.2625 -0.680748 43.5017 -0.884097 32.7243 2.77619Z" fill="url(#paint0_linear)"/>
<path d="M85.2675 24.134C85.2675 25.3762 85.0452 26.5357 84.5999 27.6123C84.1546 28.6785 83.5497 29.6051 82.7832 30.3918C82.0173 31.1682 81.117 31.7842 80.0815 32.2397C79.0564 32.6848 77.9539 32.9074 76.7734 32.9074C75.6041 32.9074 74.5017 32.6848 73.4661 32.2397C72.4417 31.7842 71.5407 31.1682 70.7644 30.3918C69.9985 29.6051 69.3926 28.6785 68.9476 27.6123C68.5024 26.5357 68.2798 25.3762 68.2798 24.134C68.2798 22.8709 68.5024 21.7012 68.9476 20.6246C69.3926 19.5479 69.9985 18.6215 70.7644 17.845C71.5407 17.0583 72.4417 16.4423 73.4661 15.9971C74.5017 15.5521 75.6041 15.3294 76.7734 15.3294C77.9539 15.3294 79.0564 15.5417 80.0815 15.9661C81.117 16.3802 82.0173 16.9755 82.7832 17.7518C83.5497 18.5179 84.1546 19.4444 84.5999 20.5314C85.0452 21.608 85.2675 22.8088 85.2675 24.134ZM80.9971 24.134C80.9971 23.4507 80.8836 22.8348 80.6557 22.2861C80.4383 21.727 80.1379 21.2509 79.7546 20.8575C79.3721 20.4538 78.9219 20.1484 78.4041 19.9413C77.8968 19.724 77.3532 19.6153 76.7734 19.6153C76.1937 19.6153 75.6452 19.724 75.1274 19.9413C74.6208 20.1484 74.1755 20.4538 73.7923 20.8575C73.4194 21.2509 73.1247 21.727 72.9072 22.2861C72.6898 22.8348 72.5811 23.4507 72.5811 24.134C72.5811 24.7758 72.6898 25.3711 72.9072 25.9197C73.1247 26.4684 73.4194 26.9445 73.7923 27.3483C74.1755 27.752 74.6208 28.073 75.1274 28.3111C75.6452 28.5387 76.1937 28.6527 76.7734 28.6527C77.3532 28.6527 77.8968 28.5439 78.4041 28.3265C78.9219 28.1092 79.3721 27.8038 79.7546 27.4104C80.1379 27.0171 80.4383 26.5408 80.6557 25.9818C80.8836 25.4229 80.9971 24.8068 80.9971 24.134ZM99.8327 30.6558C99.4919 30.9663 99.124 31.2614 98.7309 31.5409C98.3477 31.81 97.9435 32.0482 97.5191 32.2552C97.0947 32.4519 96.655 32.6072 96.1992 32.721C95.7539 32.8453 95.2989 32.9074 94.8327 32.9074C93.8083 32.9074 92.8452 32.7263 91.9449 32.3639C91.0445 32.0016 90.2522 31.4892 89.5686 30.8265C88.8961 30.1537 88.363 29.341 87.97 28.3886C87.5867 27.4259 87.3951 26.3493 87.3951 25.1588V15.9661H91.6187V25.1588C91.6187 25.7178 91.7017 26.2199 91.8675 26.6651C92.0431 27.0998 92.2759 27.4674 92.5658 27.7676C92.8557 28.0678 93.1923 28.2955 93.5748 28.4508C93.9686 28.6061 94.3874 28.6837 94.8327 28.6837C95.2675 28.6837 95.6773 28.5854 96.0599 28.3886C96.4529 28.1816 96.7951 27.9125 97.0843 27.5812C97.3748 27.2499 97.602 26.8773 97.7679 26.4632C97.9337 26.0387 98.016 25.6039 98.016 25.1588V15.9661H102.255V32.5968H101.231L99.8327 30.6558ZM113.84 32.5968C112.815 32.5968 111.852 32.4053 110.951 32.0222C110.051 31.6289 109.259 31.0957 108.575 30.4229C107.902 29.7396 107.37 28.9477 106.976 28.047C106.593 27.1464 106.401 26.1837 106.401 25.1588V20.2208H104.336V15.9971H106.401V9.35107H110.626V15.9971H117.054V20.2208H110.626V25.1588C110.626 25.6039 110.708 26.0233 110.874 26.4167C111.039 26.7996 111.267 27.1361 111.557 27.4259C111.847 27.7158 112.189 27.9487 112.582 28.1247C112.975 28.2903 113.394 28.3732 113.84 28.3732H117.054V32.5968H113.84ZM126.061 28.5284C126.226 28.5802 126.392 28.6164 126.557 28.6371C126.723 28.6475 126.888 28.6527 127.054 28.6527C127.468 28.6527 127.867 28.5957 128.25 28.4818C128.633 28.368 128.99 28.2075 129.321 28.0005C129.663 27.7831 129.964 27.5242 130.222 27.224C130.491 26.9135 130.709 26.5719 130.874 26.1992L133.98 29.3203C133.587 29.8794 133.131 30.3815 132.613 30.8265C132.106 31.2717 131.552 31.6496 130.952 31.9601C130.362 32.2707 129.735 32.5036 129.073 32.6589C128.42 32.8246 127.748 32.9074 127.054 32.9074C125.884 32.9074 124.782 32.69 123.747 32.2552C122.721 31.8204 121.822 31.2148 121.045 30.4385C120.279 29.662 119.673 28.7406 119.228 27.6744C118.783 26.5978 118.56 25.4176 118.56 24.134C118.56 22.8192 118.783 21.6184 119.228 20.5314C119.673 19.4444 120.279 18.5179 121.045 17.7518C121.822 16.9858 122.721 16.3906 123.747 15.9661C124.782 15.5417 125.884 15.3294 127.054 15.3294C127.748 15.3294 128.426 15.4123 129.088 15.578C129.751 15.7435 130.377 15.9817 130.968 16.2922C131.568 16.6028 132.127 16.9858 132.645 17.4413C133.162 17.8864 133.617 18.3885 134.011 18.9475L126.061 28.5284ZM128.234 19.7861C128.038 19.7136 127.84 19.667 127.645 19.6463C127.457 19.6256 127.261 19.6153 127.054 19.6153C126.474 19.6153 125.925 19.724 125.408 19.9413C124.9 20.1484 124.455 20.4486 124.073 20.8419C123.7 21.2353 123.405 21.7116 123.187 22.2705C122.97 22.8192 122.861 23.4403 122.861 24.134C122.861 24.2893 122.867 24.4652 122.877 24.6619C122.897 24.8586 122.923 25.0604 122.954 25.2675C122.996 25.4642 123.042 25.6557 123.094 25.842C123.146 26.0284 123.213 26.194 123.296 26.339L128.234 19.7861Z" fill="#A3A3A3"/>
<path d="M84.5978 27.6123L84.965 27.7654V27.7641L84.5978 27.6123ZM82.7811 30.3918L83.064 30.671L83.0661 30.6692L82.7811 30.3918ZM80.0793 32.2397L80.2375 32.6043L80.2396 32.6035L80.0793 32.2397ZM73.464 32.2397L73.303 32.603L73.3072 32.6048L73.464 32.2397ZM70.7623 30.3918L70.4772 30.6692L70.4814 30.6728L70.7623 30.3918ZM68.9457 27.6123L68.5783 27.7641L68.5788 27.7654L68.9457 27.6123ZM70.7623 17.845L70.4793 17.5658L70.7623 17.845ZM73.464 15.9972L73.3072 15.6321L73.3058 15.6326L73.464 15.9972ZM80.0793 15.9662L79.9267 16.3335L79.9316 16.3353L80.0793 15.9662ZM82.7811 17.7519L82.4981 18.0311L82.5002 18.033L82.7811 17.7519ZM84.5978 20.5314L84.2305 20.682V20.6834L84.5978 20.5314ZM80.6535 22.2861L80.2828 22.4302L80.287 22.4385L80.6535 22.2861ZM79.7525 20.8575L79.4647 21.1311L79.4682 21.1349L79.7525 20.8575ZM78.402 19.9413L78.2459 20.3069L78.2549 20.3105L78.402 19.9413ZM75.126 19.9413L75.2758 20.3094L75.28 20.3078L75.126 19.9413ZM73.7901 20.8575L73.5023 20.5839L73.5016 20.5841L73.7901 20.8575ZM72.9051 22.2861L73.2751 22.4325L73.2758 22.4302L72.9051 22.2861ZM73.7901 27.3482L73.4981 27.6179L73.5023 27.6219L73.7901 27.3482ZM75.126 28.311L74.9567 28.671L74.9657 28.6749L75.126 28.311ZM78.402 28.3266L78.2487 27.96L78.2459 27.9611L78.402 28.3266ZM80.6535 25.9818L80.2856 25.8318L80.2828 25.8377L80.6535 25.9818ZM84.8682 24.134C84.8682 25.3276 84.6542 26.4351 84.2305 27.4604L84.965 27.7641C85.4319 26.6362 85.6633 25.4248 85.6633 24.134H84.8682ZM84.2312 27.4591C83.8041 28.4817 83.2257 29.3655 82.4967 30.1145L83.0661 30.6692C83.8689 29.8447 84.5016 28.8754 84.965 27.7654L84.2312 27.4591ZM82.4981 30.1126C81.7692 30.852 80.9107 31.4397 79.919 31.8758L80.2396 32.6035C81.319 32.1286 82.2619 31.4845 83.064 30.671L82.4981 30.1126ZM79.9204 31.8751C78.949 32.2972 77.9009 32.5099 76.772 32.5099V33.3048C78.0034 33.3048 79.1602 33.0723 80.2375 32.6043L79.9204 31.8751ZM76.772 32.5099C75.6542 32.5099 74.6048 32.2974 73.6215 31.8745L73.3072 32.6048C74.3943 33.0722 75.5504 33.3048 76.772 33.3048V32.5099ZM73.6257 31.8764C72.6445 31.4402 71.7845 30.8519 71.0438 30.1107L70.4814 30.6728C71.2933 31.4846 72.2347 32.128 73.303 32.603L73.6257 31.8764ZM71.0473 30.1145C70.3177 29.3655 69.7393 28.4817 69.3125 27.4591L68.5788 27.7654C69.0422 28.8754 69.6748 29.8447 70.4779 30.6692L71.0473 30.1145ZM69.313 27.4604C68.8891 26.4351 68.6754 25.3276 68.6754 24.134H67.8804C67.8804 25.4248 68.1119 26.6362 68.5783 27.7641L69.313 27.4604ZM68.6754 24.134C68.6754 22.9187 68.8894 21.801 69.313 20.7765L68.5783 20.4728C68.1116 21.6014 67.8804 22.8233 67.8804 24.134H68.6754ZM69.313 20.7765C69.74 19.7441 70.3177 18.8617 71.0452 18.1243L70.4793 17.5658C69.6749 18.3813 69.0417 19.3519 68.5783 20.4728L69.313 20.7765ZM71.0452 18.1243C71.7859 17.3741 72.6438 16.7869 73.6229 16.3618L73.3058 15.6326C72.2347 16.0978 71.2919 16.7425 70.4793 17.5658L71.0452 18.1243ZM73.6215 16.3624C74.6048 15.9394 75.6542 15.727 76.772 15.727V14.9319C75.5504 14.9319 74.3943 15.1648 73.3072 15.6321L73.6215 16.3624ZM76.772 15.727C77.903 15.727 78.9539 15.9302 79.9267 16.3335L80.2312 15.5989C79.1553 15.1532 78.0006 14.9319 76.772 14.9319V15.727ZM79.9316 16.3353C80.9177 16.7294 81.7713 17.2945 82.4981 18.0311L83.064 17.4727C82.2591 16.6565 81.3121 16.031 80.2264 15.5971L79.9316 16.3353ZM82.5002 18.033C83.2257 18.7587 83.8034 19.6397 84.2305 20.682L84.9657 20.3808C84.5023 19.2492 83.8689 18.2772 83.0626 17.4708L82.5002 18.033ZM84.2305 20.6834C84.6535 21.7056 84.8682 22.8539 84.8682 24.134H85.6633C85.6633 22.7639 85.4326 21.5105 84.965 20.3795L84.2305 20.6834ZM81.3929 24.134C81.3929 23.4062 81.2717 22.7374 81.0208 22.1338L80.287 22.4385C80.4912 22.9322 80.5978 23.4952 80.5978 24.134H81.3929ZM81.0243 22.142C80.7894 21.5379 80.4612 21.0152 80.0382 20.5802L79.4682 21.1349C79.811 21.4866 80.0835 21.9163 80.2828 22.4302L81.0243 22.142ZM80.0417 20.5839C79.6194 20.1385 79.1204 19.8006 78.5497 19.5723L78.2549 20.3105C78.719 20.4962 79.1211 20.7691 79.4647 21.1311L80.0417 20.5839ZM78.5588 19.576C77.9999 19.3363 77.4027 19.2178 76.772 19.2178V20.0128C77.3002 20.0128 77.7901 20.1117 78.2459 20.3067L78.5588 19.576ZM76.772 19.2178C76.1413 19.2178 75.54 19.3363 74.972 19.5748L75.28 20.3078C75.7469 20.1117 76.2431 20.0128 76.772 20.0128V19.2178ZM74.9755 19.5733C74.4152 19.802 73.9232 20.14 73.5023 20.5839L74.0786 21.1311C74.4236 20.7676 74.8222 20.4948 75.2758 20.3094L74.9755 19.5733ZM73.5016 20.5841C73.0905 21.0187 72.7685 21.5402 72.5351 22.142L73.2758 22.4302C73.4765 21.9141 73.7455 21.4831 74.0793 21.1309L73.5016 20.5841ZM72.5358 22.1397C72.2974 22.7417 72.1818 23.4084 72.1818 24.134H72.9769C72.9769 23.4931 73.0786 22.9278 73.2751 22.4325L72.5358 22.1397ZM72.1818 24.134C72.1818 24.8216 72.2981 25.4669 72.5358 26.0661L73.2751 25.7733C73.0772 25.2751 72.9769 24.7301 72.9769 24.134H72.1818ZM72.5358 26.0661C72.7699 26.6569 73.0898 27.1756 73.4981 27.6179L74.0828 27.0786C73.7455 26.7135 73.4758 26.2798 73.2751 25.7733L72.5358 26.0661ZM73.5023 27.6219C73.919 28.0618 74.4055 28.4119 74.9567 28.6709L75.2947 27.9512C74.8319 27.734 74.4278 27.4423 74.0786 27.0747L73.5023 27.6219ZM74.9657 28.6749C75.5351 28.9254 76.1386 29.0502 76.772 29.0502V28.2551C76.2459 28.2551 75.7518 28.1522 75.2863 27.9471L74.9657 28.6749ZM76.772 29.0502C77.4027 29.0502 77.9999 28.9316 78.5588 28.6919L78.2459 27.9611C77.7901 28.1563 77.3002 28.2551 76.772 28.2551V29.0502ZM78.556 28.6931C79.1218 28.4555 79.6166 28.1202 80.0382 27.6878L79.4682 27.1331C79.1232 27.4874 78.7177 27.7629 78.2487 27.96L78.556 28.6931ZM80.0382 27.6878C80.4612 27.2527 80.7894 26.7299 81.0243 26.1259L80.2828 25.8377C80.0835 26.3517 79.811 26.7813 79.4682 27.1331L80.0382 27.6878ZM81.0215 26.1317C81.2717 25.52 81.3929 24.8524 81.3929 24.134H80.5978C80.5978 24.7613 80.4926 25.3256 80.2856 25.8318L81.0215 26.1317ZM99.8305 30.6558L100.154 30.4235L99.8933 30.062L99.5636 30.3616L99.8305 30.6558ZM98.7288 31.5409L98.9574 31.8662L98.9588 31.865L98.7288 31.5409ZM97.517 32.2551L97.6849 32.616L97.6912 32.6124L97.517 32.2551ZM96.1978 32.721L96.1009 32.3352L96.0912 32.3381L96.1978 32.721ZM89.5671 30.8266L89.2863 31.1077L89.2905 31.112L89.5671 30.8266ZM87.9678 28.3887L87.5985 28.5356L87.5999 28.5404L87.9678 28.3887ZM87.3929 15.9662V15.5686H86.9957V15.9662H87.3929ZM91.6166 15.9662H92.0138V15.5686H91.6166V15.9662ZM91.8654 26.6651L91.4926 26.8036L91.4947 26.809L91.4961 26.8142L91.8654 26.6651ZM93.5727 28.4508L93.4236 28.8192L93.4278 28.8205L93.5727 28.4508ZM96.0577 28.3887L96.2396 28.7423L96.2431 28.7404L96.0577 28.3887ZM97.7657 26.4632L98.1351 26.6108L98.1365 26.6077L97.7657 26.4632ZM98.0138 15.9662V15.5686H97.6166V15.9662H98.0138ZM102.254 15.9662H102.651V15.5686H102.254V15.9662ZM102.254 32.5968V32.9943H102.651V32.5968H102.254ZM101.228 32.5968L100.906 32.8291L101.025 32.9943H101.228V32.5968ZM99.5636 30.3616C99.2347 30.661 98.8793 30.9462 98.4981 31.2168L98.9588 31.865C99.365 31.5766 99.7448 31.2716 100.099 30.9499L99.5636 30.3616ZM98.5002 31.2156C98.1344 31.4726 97.7483 31.7 97.3434 31.8979L97.6912 32.6124C98.1351 32.3963 98.5574 32.1476 98.9574 31.8662L98.5002 31.2156ZM97.3504 31.8945C96.949 32.0807 96.5323 32.2276 96.1009 32.3354L96.294 33.1066C96.7741 32.9868 97.2375 32.8232 97.6842 32.6158L97.3504 31.8945ZM96.0912 32.3381C95.6807 32.4526 95.2612 32.5099 94.8305 32.5099V33.3048C95.3323 33.3048 95.8236 33.2379 96.3037 33.1039L96.0912 32.3381ZM94.8305 32.5099C93.8542 32.5099 92.942 32.3374 92.0912 31.9951L91.7943 32.7326C92.7448 33.115 93.7581 33.3048 94.8305 33.3048V32.5099ZM92.0912 31.9951C91.2375 31.6516 90.4891 31.1671 89.8438 30.5412L89.2905 31.112C90.011 31.811 90.8466 32.3515 91.7943 32.7326L92.0912 31.9951ZM89.848 30.5455C89.2152 29.9126 88.71 29.145 88.3351 28.237L87.5999 28.5404C88.0117 29.5372 88.5727 30.3949 89.2863 31.1077L89.848 30.5455ZM88.3372 28.2417C87.9748 27.3322 87.7908 26.3064 87.7908 25.1588H86.9957C86.9957 26.3922 87.1943 27.5197 87.5985 28.5356L88.3372 28.2417ZM87.7908 25.1588V15.9662H86.9957V25.1588H87.7908ZM87.3929 16.3636H91.6166V15.5686H87.3929V16.3636ZM91.2187 15.9662V25.1588H92.0138V15.9662H91.2187ZM91.2187 25.1588C91.2187 25.757 91.3079 26.3071 91.4926 26.8036L92.2375 26.5264C92.0912 26.1327 92.0138 25.6787 92.0138 25.1588H91.2187ZM91.4961 26.8142C91.6898 27.2904 91.949 27.7025 92.2779 28.0436L92.8494 27.4915C92.5999 27.2321 92.3929 26.9093 92.2333 26.5159L91.4961 26.8142ZM92.2779 28.0436C92.6062 28.3835 92.9887 28.6428 93.4236 28.8192L93.7225 28.0824C93.3915 27.9482 93.1016 27.7521 92.8494 27.4915L92.2779 28.0436ZM93.4278 28.8205C93.8696 28.9951 94.3386 29.0812 94.8305 29.0812V28.2862C94.4333 28.2862 94.0633 28.217 93.719 28.0811L93.4278 28.8205ZM94.8305 29.0812C95.3288 29.0812 95.7999 28.9682 96.2396 28.7423L95.8765 28.035C95.5504 28.2026 95.2034 28.2862 94.8305 28.2862V29.0812ZM96.2431 28.7404C96.6793 28.5109 97.0591 28.2114 97.3818 27.843L96.7832 27.3195C96.526 27.6135 96.2229 27.8524 95.8724 28.0369L96.2431 28.7404ZM97.3818 27.843C97.7016 27.4774 97.9532 27.0661 98.1351 26.6108L97.3971 26.3156C97.248 26.6885 97.0431 27.0225 96.7832 27.3195L97.3818 27.843ZM98.1365 26.6077C98.3197 26.1383 98.4117 25.6546 98.4117 25.1588H97.6166C97.6166 25.5534 97.5434 25.9392 97.3957 26.3187L98.1365 26.6077ZM98.4117 25.1588V15.9662H97.6166V25.1588H98.4117ZM98.0138 16.3636H102.254V15.5686H98.0138V16.3636ZM101.856 15.9662V32.5968H102.651V15.9662H101.856ZM102.254 32.1993H101.228V32.9943H102.254V32.1993ZM101.551 32.3645L100.154 30.4235L99.5086 30.888L100.906 32.8291L101.551 32.3645ZM110.95 32.0223L110.79 32.3866L110.794 32.3881L110.95 32.0223ZM108.573 30.4228L108.29 30.7018L108.295 30.7061L108.573 30.4228ZM106.974 28.047L106.608 28.2026L106.61 28.2062L106.974 28.047ZM106.399 20.2209H106.797V19.8234H106.399V20.2209ZM104.334 20.2209H103.936V20.6184H104.334V20.2209ZM104.334 15.9972V15.5997H103.936V15.9972H104.334ZM106.399 15.9972V16.3947H106.797V15.9972H106.399ZM106.399 9.35117V8.95361H106.002V9.35117H106.399ZM110.624 9.35117H111.021V8.95361H110.624V9.35117ZM110.624 15.9972H110.226V16.3947H110.624V15.9972ZM117.052 15.9972H117.449V15.5997H117.052V15.9972ZM117.052 20.2209V20.6184H117.449V20.2209H117.052ZM110.624 20.2209V19.8234H110.226V20.2209H110.624ZM110.872 26.4166L110.505 26.5709L110.507 26.5744L110.872 26.4166ZM111.555 27.4259L111.836 27.1448L111.555 27.4259ZM112.58 28.1247L112.417 28.4876L112.426 28.491L112.58 28.1247ZM117.052 28.3731H117.449V27.9756H117.052V28.3731ZM117.052 32.5968V32.9943H117.449V32.5968H117.052ZM113.838 32.1993C112.864 32.1993 111.954 32.0175 111.104 31.6564L110.794 32.3881C111.746 32.793 112.762 32.9943 113.838 32.9943V32.1993ZM111.109 31.6579C110.251 31.2836 109.5 30.7775 108.852 30.1397L108.295 30.7061C109.014 31.414 109.846 31.9742 110.79 32.3865L111.109 31.6579ZM108.857 30.1439C108.219 29.4962 107.713 28.7451 107.339 27.8879L106.61 28.2062C107.022 29.1502 107.582 29.983 108.29 30.7018L108.857 30.1439ZM107.34 27.8915C106.979 27.0423 106.797 26.1328 106.797 25.1588H106.002C106.002 26.2346 106.203 27.2505 106.608 28.2026L107.34 27.8915ZM106.797 25.1588V20.2209H106.002V25.1588H106.797ZM106.399 19.8234H104.334V20.6184H106.399V19.8234ZM104.732 20.2209V15.9972H103.936V20.2209H104.732ZM104.334 16.3947H106.399V15.5997H104.334V16.3947ZM106.797 15.9972V9.35117H106.002V15.9972H106.797ZM106.399 9.74867H110.624V8.95361H106.399V9.74867ZM110.226 9.35117V15.9972H111.021V9.35117H110.226ZM110.624 16.3947H117.052V15.5997H110.624V16.3947ZM116.655 15.9972V20.2209H117.449V15.9972H116.655ZM117.052 19.8234H110.624V20.6184H117.052V19.8234ZM110.226 20.2209V25.1588H111.021V20.2209H110.226ZM110.226 25.1588C110.226 25.6547 110.318 26.1266 110.505 26.5709L111.238 26.2623C111.094 25.9199 111.021 25.5533 111.021 25.1588H110.226ZM110.507 26.5744C110.692 27.0026 110.948 27.3811 111.274 27.707L111.836 27.1448C111.582 26.8911 111.382 26.5967 111.236 26.2588L110.507 26.5744ZM111.274 27.707C111.6 28.0328 111.982 28.2928 112.417 28.4876L112.742 27.7618C112.391 27.6046 112.09 27.3986 111.836 27.1448L111.274 27.707ZM112.426 28.491C112.87 28.6781 113.342 28.7707 113.838 28.7707V27.9756C113.442 27.9756 113.076 27.9025 112.734 27.7584L112.426 28.491ZM113.838 28.7707H117.052V27.9756H113.838V28.7707ZM116.655 28.3731V32.5968H117.449V28.3731H116.655ZM117.052 32.1993H113.838V32.9943H117.052V32.1993ZM126.058 28.5284L125.753 28.2746L125.374 28.731L125.94 28.9079L126.058 28.5284ZM126.555 28.6371L126.506 29.0316L126.518 29.0331L126.53 29.0339L126.555 28.6371ZM129.319 28.0005L129.53 28.3376L129.533 28.3358L129.319 28.0005ZM130.219 27.2241L129.919 26.9637L129.918 26.9645L130.219 27.2241ZM130.872 26.1992L131.154 25.9188L130.744 25.5074L130.508 26.0378L130.872 26.1992ZM133.978 29.3204L134.303 29.5492L134.495 29.2764L134.259 29.04L133.978 29.3204ZM132.611 30.8266L132.352 30.5252L132.349 30.5278L132.611 30.8266ZM130.95 31.9602L130.766 31.6071L130.764 31.6084L130.95 31.9602ZM129.071 32.6589L128.98 32.2718L128.973 32.2736L129.071 32.6589ZM123.745 32.2551L123.589 32.6211L123.591 32.6217L123.745 32.2551ZM121.042 30.4384L120.759 30.7176L120.762 30.7195L121.042 30.4384ZM119.226 27.6744L118.858 27.8262L118.859 27.8275L119.226 27.6744ZM119.226 20.5314L118.858 20.3808L119.226 20.5314ZM121.042 17.7519L120.764 17.4689L120.762 17.4708L121.042 17.7519ZM123.745 15.9662L123.594 15.5984L123.592 15.5989L123.745 15.9662ZM130.966 16.2923L130.78 16.6441L130.782 16.6453L130.966 16.2923ZM132.642 17.4413L132.38 17.7398L132.383 17.7427L132.642 17.4413ZM134.009 18.9476L134.314 19.2014L134.509 18.9674L134.334 18.7188L134.009 18.9476ZM128.232 19.7861L128.549 20.0253L128.871 19.5981L128.37 19.4131L128.232 19.7861ZM127.642 19.6463L127.598 20.0414L127.601 20.0417L127.642 19.6463ZM125.405 19.9413L125.556 20.3094L125.56 20.3078L125.405 19.9413ZM124.071 20.842L123.785 20.5646L123.782 20.5686L124.071 20.842ZM123.185 22.2705L123.555 22.417L123.555 22.4147L123.185 22.2705ZM122.875 24.6619L122.477 24.6828L122.479 24.6932L122.48 24.7036L122.875 24.6619ZM122.953 25.2675L122.559 25.3264L122.561 25.338L122.564 25.3494L122.953 25.2675ZM123.294 26.339L122.949 26.5362L123.249 27.0602L123.611 26.5782L123.294 26.339ZM125.94 28.9079C126.127 28.9664 126.316 29.0078 126.506 29.0316L126.605 28.2427C126.463 28.225 126.32 28.194 126.177 28.149L125.94 28.9079ZM126.53 29.0339C126.704 29.0447 126.878 29.0502 127.052 29.0502V28.2551C126.895 28.2551 126.737 28.2502 126.58 28.2404L126.53 29.0339ZM127.052 29.0502C127.503 29.0502 127.939 28.9881 128.361 28.8629L128.134 28.1009C127.789 28.2033 127.429 28.2551 127.052 28.2551V29.0502ZM128.361 28.8629C128.778 28.739 129.168 28.5641 129.53 28.3375L129.108 27.6634C128.808 27.851 128.484 27.997 128.134 28.1009L128.361 28.8629ZM129.533 28.3358C129.907 28.0981 130.236 27.8139 130.521 27.4836L129.918 26.9645C129.686 27.2347 129.415 27.468 129.106 27.6651L129.533 28.3358ZM130.52 27.4844C130.815 27.1444 131.054 26.7695 131.235 26.3607L130.508 26.0378C130.359 26.3742 130.163 26.6826 129.919 26.9637L130.52 27.4844ZM130.59 26.4796L133.695 29.6008L134.259 29.04L131.154 25.9188L130.59 26.4796ZM133.653 29.0916C133.278 29.6239 132.845 30.1015 132.352 30.5252L132.87 31.128C133.412 30.6614 133.89 30.1349 134.303 29.5492L133.653 29.0916ZM132.349 30.5278C131.866 30.9516 131.339 31.3113 130.766 31.6071L131.132 32.3132C131.762 31.9879 132.341 31.5918 132.874 31.1254L132.349 30.5278ZM130.764 31.6084C130.205 31.9029 129.61 32.1241 128.98 32.2719L129.162 33.0459C129.856 32.8831 130.513 32.6386 131.135 32.3119L130.764 31.6084ZM128.973 32.2736C128.354 32.4309 127.713 32.5099 127.052 32.5099V33.3048C127.778 33.3048 128.484 33.2182 129.169 33.0441L128.973 32.2736ZM127.052 32.5099C125.933 32.5099 124.883 32.3022 123.898 31.8887L123.591 32.6217C124.677 33.0778 125.832 33.3048 127.052 33.3048V32.5099ZM123.9 31.8892C122.921 31.4741 122.063 30.8971 121.324 30.1573L120.762 30.7195C121.574 31.5325 122.518 32.1667 123.589 32.6211L123.9 31.8892ZM121.325 30.1592C120.597 29.4211 120.019 28.5433 119.592 27.5213L118.859 27.8275C119.323 28.9379 119.956 29.9028 120.759 30.7176L121.325 30.1592ZM119.593 27.5225C119.17 26.4988 118.955 25.3708 118.955 24.134H118.16C118.16 25.4644 118.391 26.6968 118.858 27.8262L119.593 27.5225ZM118.955 24.134C118.955 22.8648 119.17 21.7158 119.594 20.682L118.858 20.3808C118.391 21.5209 118.16 22.7738 118.16 24.134H118.955ZM119.594 20.682C120.021 19.6397 120.598 18.7587 121.324 18.033L120.762 17.4708C119.955 18.2772 119.321 19.2492 118.858 20.3808L119.594 20.682ZM121.322 18.0348C122.061 17.3055 122.918 16.7386 123.897 16.3335L123.592 15.5989C122.521 16.0426 121.577 16.6662 120.764 17.4689L121.322 18.0348ZM123.895 16.334C124.88 15.9301 125.931 15.727 127.052 15.727V14.9319C125.833 14.9319 124.679 15.1535 123.594 15.5984L123.895 16.334ZM127.052 15.727C127.713 15.727 128.359 15.806 128.989 15.9636L129.183 15.1923C128.488 15.0187 127.778 14.9319 127.052 14.9319V15.727ZM128.989 15.9636C129.623 16.1217 130.219 16.3486 130.78 16.644L131.15 15.9404C130.532 15.6147 129.875 15.3655 129.183 15.1923L128.989 15.9636ZM130.782 16.6453C131.353 16.9407 131.886 17.3053 132.38 17.7398L132.904 17.1429C132.363 16.6664 131.777 16.2649 131.148 15.9392L130.782 16.6453ZM132.383 17.7427C132.876 18.1664 133.309 18.6441 133.684 19.1763L134.334 18.7188C133.921 18.1329 133.444 17.6064 132.902 17.14L132.383 17.7427ZM133.703 18.6937L125.753 28.2746L126.364 28.7823L134.314 19.2014L133.703 18.6937ZM128.37 19.4131C128.144 19.3299 127.915 19.2754 127.684 19.251L127.601 20.0417C127.762 20.0587 127.927 20.0973 128.095 20.1591L128.37 19.4131ZM127.686 19.2512C127.484 19.2287 127.272 19.2178 127.052 19.2178V20.0128C127.246 20.0128 127.428 20.0225 127.598 20.0414L127.686 19.2512ZM127.052 19.2178C126.421 19.2178 125.82 19.3363 125.252 19.5748L125.56 20.3078C126.027 20.1117 126.523 20.0128 127.052 20.0128V19.2178ZM125.256 19.5733C124.698 19.8011 124.207 20.1322 123.785 20.5646L124.355 21.1193C124.7 20.765 125.1 20.4957 125.556 20.3094L125.256 19.5733ZM123.782 20.5686C123.371 21.0032 123.049 21.5247 122.815 22.1265L123.555 22.4147C123.757 21.8985 124.026 21.4676 124.359 21.1154L123.782 20.5686ZM122.816 22.1241C122.577 22.7269 122.462 23.3989 122.462 24.134H123.256C123.256 23.4819 123.359 22.9117 123.555 22.417L122.816 22.1241ZM122.462 24.134C122.462 24.2978 122.467 24.4809 122.477 24.6828L123.272 24.6411C123.261 24.4496 123.256 24.2807 123.256 24.134H122.462ZM122.48 24.7036C122.501 24.9064 122.527 25.114 122.559 25.3264L123.346 25.2086C123.316 25.0069 123.29 24.8109 123.27 24.6203L122.48 24.7036ZM122.564 25.3494C122.606 25.554 122.655 25.7538 122.709 25.9485L123.475 25.7357C123.426 25.5577 123.382 25.3744 123.342 25.1856L122.564 25.3494ZM122.709 25.9485C122.769 26.1616 122.847 26.3586 122.949 26.5362L123.639 26.1417C123.575 26.0295 123.52 25.8951 123.475 25.7357L122.709 25.9485ZM123.611 26.5782L128.549 20.0253L127.915 19.5469L122.977 26.0997L123.611 26.5782Z" fill="#A0A0A0"/>
<path d="M153.858 32.5968C152.833 32.5968 151.871 32.4053 150.97 32.0222C150.069 31.6289 149.277 31.0957 148.594 30.4229C147.921 29.7396 147.388 28.9477 146.995 28.047C146.612 27.1464 146.42 26.1837 146.42 25.1588V20.2208H144.354V15.9971H146.42V9.35107H150.644V15.9971H157.072V20.2208H150.644V25.1588C150.644 25.6039 150.727 26.0233 150.892 26.4167C151.057 26.7996 151.286 27.1361 151.575 27.4259C151.865 27.7158 152.207 27.9487 152.6 28.1247C152.994 28.2903 153.413 28.3732 153.858 28.3732H157.072V32.5968H153.858ZM180.458 26.5874C180.458 27.457 180.292 28.28 179.961 29.0564C179.63 29.8224 179.174 30.4902 178.594 31.0595C178.025 31.6289 177.352 32.0792 176.575 32.4105C175.81 32.7417 174.987 32.9074 174.106 32.9074C173.32 32.9074 172.564 32.7728 171.84 32.5036C171.115 32.2241 170.457 31.8204 169.867 31.2925C169.288 31.8204 168.635 32.2241 167.911 32.5036C167.196 32.7728 166.44 32.9074 165.644 32.9074C164.764 32.9074 163.941 32.7417 163.175 32.4105C162.409 32.0792 161.736 31.6289 161.156 31.0595C160.587 30.4902 160.136 29.8224 159.805 29.0564C159.474 28.28 159.309 27.457 159.309 26.5874V15.9971H163.548V26.5874C163.548 26.8773 163.599 27.1516 163.702 27.4104C163.817 27.6589 163.966 27.8814 164.153 28.0781C164.35 28.2645 164.572 28.4146 164.821 28.5284C165.079 28.6319 165.354 28.6837 165.644 28.6837C165.934 28.6837 166.207 28.6319 166.467 28.5284C166.725 28.4146 166.953 28.2645 167.15 28.0781C167.347 27.8814 167.497 27.6589 167.6 27.4104C167.714 27.1516 167.771 26.8773 167.771 26.5874V15.9971H171.995V26.5874C171.995 26.8773 172.052 27.1516 172.166 27.4104C172.279 27.6589 172.43 27.8814 172.616 28.0781C172.813 28.2645 173.035 28.4146 173.283 28.5284C173.543 28.6319 173.817 28.6837 174.106 28.6837C174.396 28.6837 174.671 28.6319 174.929 28.5284C175.189 28.4146 175.411 28.2645 175.597 28.0781C175.794 27.8814 175.949 27.6589 176.063 27.4104C176.177 27.1516 176.234 26.8773 176.234 26.5874V15.9971H180.458V26.5874ZM199.604 24.134C199.604 25.3762 199.382 26.5357 198.936 27.6123C198.491 28.6785 197.886 29.6051 197.12 30.3918C196.353 31.1682 195.453 31.7842 194.417 32.2397C193.393 32.6848 192.29 32.9074 191.11 32.9074C189.941 32.9074 188.837 32.6848 187.803 32.2397C186.777 31.7842 185.877 31.1682 185.1 30.3918C184.334 29.6051 183.729 28.6785 183.283 27.6123C182.838 26.5357 182.616 25.3762 182.616 24.134C182.616 22.8709 182.838 21.7012 183.283 20.6246C183.729 19.5479 184.334 18.6215 185.1 17.845C185.877 17.0583 186.777 16.4423 187.803 15.9971C188.837 15.5521 189.941 15.3294 191.11 15.3294C192.29 15.3294 193.393 15.5417 194.417 15.9661C195.453 16.3802 196.353 16.9755 197.12 17.7518C197.886 18.5179 198.491 19.4444 198.936 20.5314C199.382 21.608 199.604 22.8088 199.604 24.134ZM195.334 24.134C195.334 23.4507 195.219 22.8348 194.992 22.2861C194.774 21.727 194.474 21.2509 194.091 20.8575C193.708 20.4538 193.258 20.1484 192.741 19.9413C192.233 19.724 191.69 19.6153 191.11 19.6153C190.53 19.6153 189.982 19.724 189.464 19.9413C188.957 20.1484 188.512 20.4538 188.129 20.8575C187.756 21.2509 187.46 21.727 187.244 22.2861C187.026 22.8348 186.918 23.4507 186.918 24.134C186.918 24.7758 187.026 25.3711 187.244 25.9197C187.46 26.4684 187.756 26.9445 188.129 27.3483C188.512 27.752 188.957 28.073 189.464 28.3111C189.982 28.5387 190.53 28.6527 191.11 28.6527C191.69 28.6527 192.233 28.5439 192.741 28.3265C193.258 28.1092 193.708 27.8038 194.091 27.4104C194.474 27.0171 194.774 26.5408 194.992 25.9818C195.219 25.4229 195.334 24.8068 195.334 24.134Z" fill="#A3A3A3"/>
<path d="M150.968 32.0223L150.809 32.3866L150.813 32.3881L150.968 32.0223ZM148.592 30.4228L148.309 30.7018L148.314 30.7061L148.592 30.4228ZM146.993 28.047L146.627 28.2026L146.629 28.2062L146.993 28.047ZM146.418 20.2209H146.815V19.8234H146.418V20.2209ZM144.353 20.2209H143.956V20.6184H144.353V20.2209ZM144.353 15.9972V15.5997H143.956V15.9972H144.353ZM146.418 15.9972V16.3947H146.815V15.9972H146.418ZM146.418 9.35117V8.95361H146.021V9.35117H146.418ZM150.643 9.35117H151.04V8.95361H150.643V9.35117ZM150.643 15.9972H150.245V16.3947H150.643V15.9972ZM157.071 15.9972H157.468V15.5997H157.071V15.9972ZM157.071 20.2209V20.6184H157.468V20.2209H157.071ZM150.643 20.2209V19.8234H150.245V20.2209H150.643ZM150.89 26.4166L150.524 26.5709L150.526 26.5744L150.89 26.4166ZM151.574 27.4259L151.855 27.1448L151.574 27.4259ZM152.599 28.1247L152.436 28.4876L152.444 28.491L152.599 28.1247ZM157.071 28.3731H157.468V27.9756H157.071V28.3731ZM157.071 32.5968V32.9943H157.468V32.5968H157.071ZM153.857 32.1993C152.882 32.1993 151.972 32.0175 151.124 31.6564L150.813 32.3881C151.765 32.793 152.78 32.9943 153.857 32.9943V32.1993ZM151.127 31.6579C150.271 31.2836 149.519 30.7775 148.871 30.1397L148.314 30.7061C149.032 31.414 149.865 31.9742 150.809 32.3865L151.127 31.6579ZM148.875 30.1439C148.237 29.4962 147.732 28.7451 147.357 27.8879L146.629 28.2062C147.041 29.1502 147.602 29.983 148.309 30.7018L148.875 30.1439ZM147.359 27.8915C146.998 27.0423 146.815 26.1328 146.815 25.1588H146.021C146.021 26.2346 146.222 27.2505 146.627 28.2026L147.359 27.8915ZM146.815 25.1588V20.2209H146.021V25.1588H146.815ZM146.418 19.8234H144.353V20.6184H146.418V19.8234ZM144.75 20.2209V15.9972H143.956V20.2209H144.75ZM144.353 16.3947H146.418V15.5997H144.353V16.3947ZM146.815 15.9972V9.35117H146.021V15.9972H146.815ZM146.418 9.74867H150.643V8.95361H146.418V9.74867ZM150.245 9.35117V15.9972H151.04V9.35117H150.245ZM150.643 16.3947H157.071V15.5997H150.643V16.3947ZM156.673 15.9972V20.2209H157.468V15.9972H156.673ZM157.071 19.8234H150.643V20.6184H157.071V19.8234ZM150.245 20.2209V25.1588H151.04V20.2209H150.245ZM150.245 25.1588C150.245 25.6547 150.337 26.1266 150.524 26.5709L151.257 26.2623C151.113 25.9199 151.04 25.5533 151.04 25.1588H150.245ZM150.526 26.5744C150.711 27.0026 150.967 27.3811 151.293 27.707L151.855 27.1448C151.601 26.8911 151.402 26.5967 151.255 26.2588L150.526 26.5744ZM151.293 27.707C151.619 28.0328 152.001 28.2928 152.436 28.4876L152.761 27.7618C152.41 27.6046 152.108 27.3986 151.855 27.1448L151.293 27.707ZM152.444 28.491C152.889 28.6781 153.36 28.7707 153.857 28.7707V27.9756C153.461 27.9756 153.095 27.9025 152.753 27.7584L152.444 28.491ZM153.857 28.7707H157.071V27.9756H153.857V28.7707ZM156.673 28.3731V32.5968H157.468V28.3731H156.673ZM157.071 32.1993H153.857V32.9943H157.071V32.1993ZM179.96 29.0564L180.324 29.2142L180.324 29.2124L179.96 29.0564ZM178.593 31.0595L178.314 30.7759L178.312 30.7785L178.593 31.0595ZM176.574 32.4104L176.418 32.0448L176.416 32.0456L176.574 32.4104ZM171.838 32.5036L171.695 32.8745L171.7 32.8763L171.838 32.5036ZM169.866 31.2924L170.131 30.9962L169.864 30.7569L169.599 30.9986L169.866 31.2924ZM167.909 32.5036L168.05 32.8756L168.052 32.8745L167.909 32.5036ZM161.154 31.0595L160.874 31.3407L160.876 31.3431L161.154 31.0595ZM159.804 29.0564L159.438 29.2124L159.438 29.2142L159.804 29.0564ZM159.307 15.9972V15.5997H158.909V15.9972H159.307ZM163.546 15.9972H163.944V15.5997H163.546V15.9972ZM163.701 27.4104L163.332 27.5581L163.336 27.5671L163.34 27.5761L163.701 27.4104ZM164.151 28.0781L163.863 28.3515L163.871 28.3593L163.878 28.3667L164.151 28.0781ZM164.82 28.5284L164.653 28.8898L164.662 28.8939L164.672 28.8976L164.82 28.5284ZM166.465 28.5284L166.613 28.8976L166.619 28.895L166.625 28.8923L166.465 28.5284ZM167.148 28.0781L167.422 28.3668L167.429 28.3593L167.148 28.0781ZM167.599 27.4104L167.235 27.2503L167.232 27.2575L167.599 27.4104ZM167.77 15.9972V15.5997H167.372V15.9972H167.77ZM171.993 15.9972H172.39V15.5997H171.993V15.9972ZM172.164 27.4104L171.8 27.5705L171.802 27.5761L172.164 27.4104ZM172.614 28.0781L172.326 28.3515L172.333 28.3593L172.341 28.3667L172.614 28.0781ZM173.282 28.5284L173.117 28.8898L173.126 28.8939L173.134 28.8976L173.282 28.5284ZM174.928 28.5284L175.075 28.8976L175.082 28.895L175.088 28.8923L174.928 28.5284ZM175.595 28.0781L175.315 27.797L175.595 28.0781ZM176.061 27.4104L176.423 27.5761L176.425 27.5705L176.061 27.4104ZM176.232 15.9972V15.5997H175.835V15.9972H176.232ZM180.457 15.9972H180.854V15.5997H180.457V15.9972ZM180.059 26.5874C180.059 27.405 179.903 28.1748 179.594 28.9004L180.324 29.2124C180.678 28.3852 180.854 27.5089 180.854 26.5874H180.059ZM179.595 28.8986C179.283 29.6188 178.856 30.2435 178.314 30.7759L178.871 31.3431C179.489 30.7368 179.973 30.026 180.324 29.2142L179.595 28.8986ZM178.312 30.7785C177.779 31.3102 177.15 31.7325 176.418 32.0448L176.73 32.7761C177.551 32.4259 178.267 31.9476 178.873 31.3407L178.312 30.7785ZM176.416 32.0456C175.703 32.3542 174.934 32.5099 174.105 32.5099V33.3048C175.036 33.3048 175.914 33.1293 176.732 32.7754L176.416 32.0456ZM174.105 32.5099C173.365 32.5099 172.657 32.3834 171.976 32.131L171.7 32.8763C172.469 33.1622 173.272 33.3048 174.105 33.3048V32.5099ZM171.981 32.1327C171.303 31.8708 170.686 31.4927 170.131 30.9962L169.601 31.5887C170.226 32.1481 170.925 32.5774 171.695 32.8745L171.981 32.1327ZM169.599 30.9986C169.055 31.4937 168.444 31.8712 167.766 32.1327L168.052 32.8745C168.823 32.5771 169.517 32.1471 170.133 31.5863L169.599 30.9986ZM167.769 32.1316C167.101 32.3832 166.394 32.5099 165.643 32.5099V33.3048C166.485 33.3048 167.288 33.1624 168.05 32.8756L167.769 32.1316ZM165.643 32.5099C164.813 32.5099 164.044 32.3542 163.331 32.0456L163.015 32.7754C163.834 33.1293 164.71 33.3048 165.643 33.3048V32.5099ZM163.331 32.0456C162.609 31.7332 161.977 31.3101 161.434 30.7759L160.876 31.3431C161.491 31.9478 162.206 32.4252 163.015 32.7754L163.331 32.0456ZM161.436 30.7785C160.903 30.2458 160.48 29.6203 160.169 28.8986L159.438 29.2142C159.789 30.0246 160.267 30.7345 160.874 31.3407L161.436 30.7785ZM160.17 28.9004C159.859 28.1748 159.704 27.405 159.704 26.5874H158.909C158.909 27.5089 159.085 28.3852 159.438 29.2124L160.17 28.9004ZM159.704 26.5874V15.9972H158.909V26.5874H159.704ZM159.307 16.3947H163.546V15.5997H159.307V16.3947ZM163.149 15.9972V26.5874H163.944V15.9972H163.149ZM163.149 26.5874C163.149 26.9257 163.209 27.2504 163.332 27.5581L164.071 27.2628C163.986 27.0528 163.944 26.8288 163.944 26.5874H163.149ZM163.34 27.5761C163.472 27.8638 163.646 28.1229 163.863 28.3515L164.441 27.8047C164.284 27.64 164.158 27.4539 164.063 27.2448L163.34 27.5761ZM163.878 28.3667C164.106 28.5833 164.365 28.7579 164.653 28.8898L164.985 28.1671C164.776 28.0712 164.59 27.9456 164.425 27.7895L163.878 28.3667ZM164.672 28.8976C164.979 29.0205 165.304 29.0812 165.643 29.0812V28.2862C165.401 28.2862 165.176 28.2433 164.967 28.1593L164.672 28.8976ZM165.643 29.0812C165.98 29.0812 166.305 29.0205 166.613 28.8976L166.317 28.1593C166.107 28.2433 165.883 28.2862 165.643 28.2862V29.0812ZM166.625 28.8923C166.924 28.7608 167.19 28.5858 167.422 28.3667L166.875 27.7895C166.713 27.9431 166.524 28.0682 166.305 28.1646L166.625 28.8923ZM167.429 28.3593C167.661 28.1271 167.841 27.8613 167.965 27.5633L167.232 27.2575C167.149 27.4564 167.029 27.6358 166.868 27.797L167.429 28.3593ZM167.963 27.5705C168.099 27.26 168.167 26.931 168.167 26.5874H167.372C167.372 26.8235 167.326 27.0433 167.235 27.2503L167.963 27.5705ZM168.167 26.5874V15.9972H167.372V26.5874H168.167ZM167.77 16.3947H171.993V15.5997H167.77V16.3947ZM171.596 15.9972V26.5874H172.39V15.9972H171.596ZM171.596 26.5874C171.596 26.931 171.664 27.26 171.8 27.5705L172.528 27.2503C172.437 27.0433 172.39 26.8235 172.39 26.5874H171.596ZM171.802 27.5761C171.935 27.8638 172.11 28.1229 172.326 28.3515L172.903 27.8047C172.747 27.64 172.621 27.4539 172.525 27.2448L171.802 27.5761ZM172.341 28.3667C172.57 28.5833 172.829 28.7579 173.117 28.8898L173.448 28.1671C173.238 28.0712 173.052 27.9456 172.888 27.7895L172.341 28.3667ZM173.134 28.8976C173.442 29.0205 173.767 29.0812 174.105 29.0812V28.2862C173.864 28.2862 173.64 28.2433 173.43 28.1593L173.134 28.8976ZM174.105 29.0812C174.443 29.0812 174.768 29.0205 175.075 28.8976L174.781 28.1593C174.571 28.2433 174.347 28.2862 174.105 28.2862V29.0812ZM175.088 28.8923C175.389 28.76 175.654 28.5829 175.877 28.3593L175.315 27.797C175.165 27.946 174.985 28.0692 174.768 28.1646L175.088 28.8923ZM175.877 28.3593C176.106 28.1297 176.289 27.8682 176.423 27.5761L175.701 27.2448C175.606 27.4494 175.479 27.6331 175.315 27.797L175.877 28.3593ZM176.425 27.5705C176.563 27.26 176.63 26.931 176.63 26.5874H175.835C175.835 26.8235 175.789 27.0433 175.698 27.2503L176.425 27.5705ZM176.63 26.5874V15.9972H175.835V26.5874H176.63ZM176.232 16.3947H180.457V15.5997H176.232V16.3947ZM180.059 15.9972V26.5874H180.854V15.9972H180.059ZM198.935 27.6123L199.301 27.7654L199.302 27.7641L198.935 27.6123ZM197.118 30.3918L197.401 30.671L197.403 30.6692L197.118 30.3918ZM194.416 32.2397L194.574 32.6043L194.576 32.6035L194.416 32.2397ZM187.801 32.2397L187.64 32.603L187.643 32.6048L187.801 32.2397ZM185.098 30.3918L184.814 30.6692L184.818 30.6728L185.098 30.3918ZM183.282 27.6123L182.914 27.7641L182.916 27.7654L183.282 27.6123ZM185.098 17.845L184.816 17.5658H184.816L185.098 17.845ZM187.801 15.9972L187.643 15.6321L187.643 15.6326L187.801 15.9972ZM194.416 15.9662L194.264 16.3335L194.268 16.3353L194.416 15.9662ZM197.118 17.7519L196.835 18.0311L196.836 18.033L197.118 17.7519ZM198.935 20.5314L198.567 20.682L198.567 20.6834L198.935 20.5314ZM194.99 22.2861L194.62 22.4302L194.623 22.4385L194.99 22.2861ZM194.09 20.8575L193.802 21.1311L193.805 21.1349L194.09 20.8575ZM192.739 19.9413L192.583 20.3069L192.591 20.3105L192.739 19.9413ZM189.463 19.9413L189.613 20.3094L189.616 20.3078L189.463 19.9413ZM188.127 20.8575L187.838 20.5839V20.5841L188.127 20.8575ZM187.242 22.2861L187.612 22.4325L187.613 22.4302L187.242 22.2861ZM188.127 27.3482L187.835 27.6179L187.838 27.6219L188.127 27.3482ZM189.463 28.311L189.294 28.671L189.302 28.6749L189.463 28.311ZM192.739 28.3266L192.585 27.96L192.583 27.9611L192.739 28.3266ZM194.99 25.9818L194.622 25.8318L194.62 25.8377L194.99 25.9818ZM199.205 24.134C199.205 25.3276 198.991 26.4351 198.567 27.4604L199.302 27.7641C199.768 26.6362 200 25.4248 200 24.134H199.205ZM198.567 27.4591C198.14 28.4817 197.563 29.3655 196.833 30.1145L197.403 30.6692C198.206 29.8447 198.838 28.8754 199.301 27.7654L198.567 27.4591ZM196.835 30.1126C196.105 30.852 195.247 31.4397 194.256 31.8758L194.576 32.6035C195.655 32.1286 196.598 31.4845 197.401 30.671L196.835 30.1126ZM194.257 31.8751C193.285 32.2972 192.237 32.5099 191.108 32.5099V33.3048C192.34 33.3048 193.497 33.0723 194.574 32.6043L194.257 31.8751ZM191.108 32.5099C189.99 32.5099 188.942 32.2974 187.958 31.8745L187.643 32.6048C188.73 33.0722 189.887 33.3048 191.108 33.3048V32.5099ZM187.963 31.8764C186.981 31.4402 186.121 30.8519 185.38 30.1107L184.818 30.6728C185.629 31.4846 186.571 32.128 187.64 32.603L187.963 31.8764ZM185.384 30.1145C184.655 29.3655 184.076 28.4817 183.65 27.4591L182.916 27.7654C183.379 28.8754 184.011 29.8447 184.814 30.6692L185.384 30.1145ZM183.65 27.4604C183.225 26.4351 183.012 25.3276 183.012 24.134H182.217C182.217 25.4248 182.449 26.6362 182.914 27.7641L183.65 27.4604ZM183.012 24.134C183.012 22.9187 183.227 21.801 183.65 20.7765L182.914 20.4728C182.448 21.6014 182.217 22.8233 182.217 24.134H183.012ZM183.65 20.7765C184.076 19.7441 184.655 18.8617 185.382 18.1243L184.816 17.5658C184.012 18.3813 183.379 19.3519 182.914 20.4728L183.65 20.7765ZM185.382 18.1243C186.122 17.3741 186.981 16.7869 187.959 16.3618L187.643 15.6326C186.572 16.0978 185.628 16.7425 184.816 17.5658L185.382 18.1243ZM187.958 16.3624C188.942 15.9394 189.99 15.727 191.108 15.727V14.9319C189.887 14.9319 188.73 15.1648 187.643 15.6321L187.958 16.3624ZM191.108 15.727C192.24 15.727 193.29 15.9302 194.264 16.3335L194.567 15.5989C193.492 15.1532 192.337 14.9319 191.108 14.9319V15.727ZM194.268 16.3353C195.254 16.7294 196.108 17.2945 196.835 18.0311L197.401 17.4727C196.596 16.6565 195.648 16.031 194.564 15.5971L194.268 16.3353ZM196.836 18.033C197.563 18.7587 198.14 19.6397 198.567 20.682L199.302 20.3808C198.839 19.2492 198.205 18.2772 197.399 17.4708L196.836 18.033ZM198.567 20.6834C198.99 21.7056 199.205 22.8539 199.205 24.134H200C200 22.7639 199.77 21.5105 199.302 20.3795L198.567 20.6834ZM195.73 24.134C195.73 23.4062 195.609 22.7374 195.358 22.1338L194.623 22.4385C194.829 22.9322 194.935 23.4952 194.935 24.134H195.73ZM195.361 22.142C195.126 21.5379 194.798 21.0152 194.374 20.5802L193.805 21.1349C194.148 21.4866 194.42 21.9163 194.62 22.4302L195.361 22.142ZM194.379 20.5839C193.956 20.1385 193.457 19.8006 192.886 19.5723L192.591 20.3105C193.055 20.4962 193.458 20.7691 193.802 21.1311L194.379 20.5839ZM192.896 19.576C192.336 19.3363 191.739 19.2178 191.108 19.2178V20.0128C191.637 20.0128 192.127 20.1117 192.583 20.3067L192.896 19.576ZM191.108 19.2178C190.478 19.2178 189.876 19.3363 189.308 19.5748L189.616 20.3078C190.084 20.1117 190.58 20.0128 191.108 20.0128V19.2178ZM189.312 19.5733C188.752 19.802 188.26 20.14 187.838 20.5839L188.416 21.1311C188.76 20.7676 189.158 20.4948 189.613 20.3094L189.312 19.5733ZM187.838 20.5841C187.427 21.0187 187.105 21.5402 186.872 22.142L187.613 22.4302C187.813 21.9141 188.082 21.4831 188.416 21.1309L187.838 20.5841ZM186.873 22.1397C186.634 22.7417 186.519 23.4084 186.519 24.134H187.314C187.314 23.4931 187.416 22.9278 187.612 22.4325L186.873 22.1397ZM186.519 24.134C186.519 24.8216 186.635 25.4669 186.873 26.0661L187.612 25.7733C187.414 25.2751 187.314 24.7301 187.314 24.134H186.519ZM186.873 26.0661C187.106 26.6569 187.427 27.1756 187.835 27.6179L188.419 27.0786C188.082 26.7135 187.812 26.2798 187.612 25.7733L186.873 26.0661ZM187.838 27.6219C188.256 28.0618 188.742 28.4119 189.294 28.6709L189.632 27.9512C189.169 27.734 188.764 27.4423 188.416 27.0747L187.838 27.6219ZM189.302 28.6749C189.871 28.9254 190.475 29.0502 191.108 29.0502V28.2551C190.582 28.2551 190.089 28.1522 189.622 27.9471L189.302 28.6749ZM191.108 29.0502C191.739 29.0502 192.336 28.9316 192.896 28.6919L192.583 27.9611C192.127 28.1563 191.637 28.2551 191.108 28.2551V29.0502ZM192.892 28.6931C193.459 28.4555 193.954 28.1202 194.374 27.6878L193.805 27.1331C193.46 27.4874 193.055 27.7629 192.585 27.96L192.892 28.6931ZM194.374 27.6878C194.798 27.2527 195.126 26.7299 195.361 26.1259L194.62 25.8377C194.42 26.3517 194.148 26.7813 193.805 27.1331L194.374 27.6878ZM195.359 26.1317C195.608 25.52 195.73 24.8524 195.73 24.134H194.935C194.935 24.7613 194.829 25.3256 194.622 25.8318L195.359 26.1317Z" fill="#A0A0A0"/>
<path d="M77.7127 46.7255C77.7127 47.1419 77.657 47.5442 77.5469 47.932C77.441 48.3159 77.2897 48.6773 77.0939 49.0161C76.8981 49.351 76.6612 49.6572 76.3831 49.9348C76.1058 50.2125 75.7992 50.4514 75.4647 50.6515C75.1302 50.8474 74.7685 50.9985 74.3803 51.1047C73.9929 51.215 73.5908 51.2701 73.1741 51.2701C72.7573 51.2701 72.3552 51.215 71.9671 51.1047C71.5838 50.9985 71.2221 50.8474 70.8835 50.6515C70.5483 50.4514 70.2424 50.2125 69.9643 49.9348C69.687 49.6572 69.4481 49.351 69.248 49.0161C69.052 48.6773 68.8989 48.3159 68.7886 47.932C68.6825 47.5442 68.6294 47.1419 68.6294 46.7255C68.6294 46.309 68.6825 45.9068 68.7886 45.5189C68.8989 45.131 69.052 44.7696 69.248 44.4348C69.4481 44.1 69.687 43.7937 69.9643 43.5161C70.2424 43.2384 70.5483 43.0016 70.8835 42.8056C71.2221 42.6096 71.5838 42.4585 71.9671 42.3524C72.3552 42.2421 72.7573 42.187 73.1741 42.187C73.5908 42.187 73.9929 42.2421 74.3803 42.3524C74.7685 42.4585 75.1302 42.6096 75.4647 42.8056C75.7992 43.0016 76.1058 43.2384 76.3831 43.5161C76.6612 43.7937 76.8981 44.1 77.0939 44.4348C77.2897 44.7696 77.441 45.131 77.5469 45.5189C77.657 45.9068 77.7127 46.309 77.7127 46.7255ZM75.9671 46.7255C75.9671 46.3417 75.8932 45.9803 75.7462 45.6414C75.5991 45.2984 75.3992 45.0024 75.1462 44.7533C74.8974 44.5001 74.6012 44.3001 74.2584 44.1531C73.919 44.006 73.558 43.9326 73.1741 43.9326C72.7859 43.9326 72.4228 44.006 72.0835 44.1531C71.7448 44.3001 71.4486 44.5001 71.1957 44.7533C70.9427 45.0024 70.7427 45.2984 70.5957 45.6414C70.4486 45.9803 70.3748 46.3417 70.3748 46.7255C70.3748 47.1093 70.4486 47.4706 70.5957 47.8095C70.7427 48.1444 70.9427 48.4384 71.1957 48.6916C71.4486 48.9447 71.7448 49.1448 72.0835 49.2918C72.4228 49.4387 72.7859 49.5122 73.1741 49.5122C73.558 49.5122 73.919 49.4387 74.2584 49.2918C74.6012 49.1448 74.8974 48.9447 75.1462 48.6916C75.3992 48.4384 75.5991 48.1444 75.7462 47.8095C75.8932 47.4706 75.9671 47.1093 75.9671 46.7255ZM80.3643 51.0802H78.6925V44.5205H79.0967L79.6479 45.1575C79.9176 44.9125 80.2215 44.7247 80.5601 44.5941C80.9037 44.4593 81.2605 44.3919 81.6326 44.3919C82.0326 44.3919 82.4103 44.4695 82.7657 44.6246C83.1204 44.7757 83.4312 44.986 83.696 45.2555C83.9615 45.521 84.1699 45.8333 84.3211 46.1926C84.4765 46.5479 84.5539 46.9276 84.5539 47.3318V51.0802H82.8821V47.3318C82.8821 47.1603 82.8493 46.9991 82.7838 46.848C82.7183 46.6928 82.6284 46.558 82.5141 46.4437C82.3998 46.3294 82.2674 46.2396 82.1162 46.1743C81.965 46.1089 81.804 46.0762 81.6326 46.0762C81.457 46.0762 81.2911 46.1089 81.1364 46.1743C80.981 46.2396 80.8465 46.3294 80.7323 46.4437C80.618 46.558 80.5281 46.6928 80.4626 46.848C80.3971 46.9991 80.3643 47.1603 80.3643 47.3318V51.0802ZM87.4326 51.0802H85.7483V41.9114H87.4326V51.0802ZM90.6849 42.7382C90.6849 42.8934 90.6542 43.0384 90.5929 43.1731C90.5357 43.3079 90.4563 43.4263 90.3539 43.5283C90.2521 43.6263 90.1316 43.706 89.9929 43.7672C89.8577 43.8244 89.7127 43.8529 89.558 43.8529C89.4026 43.8529 89.2556 43.8244 89.1169 43.7672C88.9817 43.706 88.864 43.6263 88.7615 43.5283C88.6633 43.4263 88.5838 43.3079 88.5225 43.1731C88.4654 43.0384 88.4368 42.8934 88.4368 42.7382C88.4368 42.5872 88.4654 42.4442 88.5225 42.3095C88.5838 42.1706 88.6633 42.0522 88.7615 41.9543C88.864 41.8522 88.9817 41.7726 89.1169 41.7154C89.2556 41.6541 89.4026 41.6235 89.558 41.6235C89.7127 41.6235 89.8577 41.6541 89.9929 41.7154C90.1316 41.7726 90.2521 41.8522 90.3539 41.9543C90.4563 42.0522 90.5357 42.1706 90.5929 42.3095C90.6542 42.4442 90.6849 42.5872 90.6849 42.7382ZM90.3971 51.0802H88.7127V44.5205H90.3971V51.0802ZM93.349 51.0802H91.6772V44.5205H92.0814L92.6326 45.1575C92.9016 44.9125 93.2061 44.7247 93.5448 44.5941C93.8877 44.4593 94.2451 44.3919 94.6166 44.3919C95.0173 44.3919 95.395 44.4695 95.7497 44.6246C96.1051 44.7757 96.4152 44.986 96.6807 45.2555C96.9462 45.521 97.1546 45.8333 97.3058 46.1926C97.4605 46.5479 97.5385 46.9276 97.5385 47.3318V51.0802H95.8661V47.3318C95.8661 47.1603 95.8333 46.9991 95.7685 46.848C95.703 46.6928 95.6131 46.558 95.4988 46.4437C95.3845 46.3294 95.2521 46.2396 95.1009 46.1743C94.9497 46.1089 94.788 46.0762 94.6166 46.0762C94.441 46.0762 94.2758 46.1089 94.1204 46.1743C93.9657 46.2396 93.8305 46.3294 93.7162 46.4437C93.6019 46.558 93.512 46.6928 93.4472 46.848C93.3817 46.9991 93.349 47.1603 93.349 47.3318V51.0802ZM101.342 49.4755C101.408 49.4959 101.472 49.5102 101.538 49.5184C101.603 49.5224 101.669 49.5245 101.734 49.5245C101.897 49.5245 102.054 49.5021 102.205 49.4571C102.357 49.4122 102.497 49.3489 102.628 49.2672C102.763 49.1815 102.881 49.0794 102.983 48.961C103.09 48.8385 103.175 48.7037 103.24 48.5568L104.465 49.7879C104.311 50.0083 104.131 50.2064 103.927 50.3819C103.727 50.5575 103.508 50.7066 103.271 50.829C103.038 50.9516 102.791 51.0435 102.53 51.1047C102.273 51.17 102.008 51.2027 101.734 51.2027C101.272 51.2027 100.837 51.1169 100.429 50.9454C100.025 50.7739 99.6695 50.5351 99.3636 50.2288C99.0612 49.9226 98.8228 49.5592 98.6472 49.1387C98.4716 48.714 98.3838 48.2485 98.3838 47.7422C98.3838 47.2236 98.4716 46.7499 98.6472 46.3212C98.8228 45.8925 99.0612 45.527 99.3636 45.2249C99.6695 44.9228 100.025 44.6879 100.429 44.5205C100.837 44.3532 101.272 44.2695 101.734 44.2695C102.008 44.2695 102.275 44.3021 102.536 44.3674C102.798 44.4327 103.044 44.5267 103.277 44.6492C103.514 44.7717 103.734 44.9228 103.939 45.1024C104.143 45.278 104.322 45.476 104.478 45.6965L101.342 49.4755ZM102.199 46.0272C102.122 45.9987 102.044 45.9803 101.966 45.9721C101.893 45.964 101.815 45.9598 101.734 45.9598C101.505 45.9598 101.289 46.0028 101.085 46.0885C100.885 46.1702 100.709 46.2886 100.558 46.4437C100.411 46.5989 100.295 46.7867 100.209 47.0072C100.123 47.2236 100.08 47.4686 100.08 47.7422C100.08 47.8035 100.082 47.8729 100.086 47.9504C100.095 48.028 100.104 48.1076 100.117 48.1893C100.133 48.2669 100.152 48.3424 100.172 48.4159C100.192 48.4894 100.219 48.5548 100.251 48.6119L102.199 46.0272ZM112.127 51.0802C111.723 51.0802 111.343 51.0047 110.989 50.8536C110.633 50.6984 110.321 50.4881 110.051 50.2227C109.786 49.9532 109.575 49.6409 109.421 49.2856C109.27 48.9304 109.194 48.5506 109.194 48.1464V46.1987H108.379V44.5328H109.194V41.9114H110.86V44.5328H113.396V46.1987H110.86V48.1464C110.86 48.322 110.893 48.4874 110.958 48.6426C111.023 48.7936 111.113 48.9263 111.227 49.0406C111.341 49.155 111.477 49.2468 111.631 49.3163C111.787 49.3816 111.952 49.4143 112.127 49.4143H113.396V51.0802H112.127ZM119.159 50.3146C119.024 50.4371 118.879 50.5534 118.724 50.6637C118.573 50.7699 118.414 50.8638 118.247 50.9454C118.079 51.023 117.905 51.0843 117.726 51.1292C117.55 51.1782 117.371 51.2027 117.187 51.2027C116.782 51.2027 116.403 51.1312 116.047 50.9883C115.693 50.8454 115.38 50.6433 115.111 50.3819C114.845 50.1166 114.635 49.796 114.479 49.4204C114.329 49.0406 114.253 48.616 114.253 48.1464V44.5205H115.919V48.1464C115.919 48.3669 115.952 48.5649 116.017 48.7405C116.086 48.912 116.178 49.057 116.293 49.1754C116.407 49.2938 116.539 49.3836 116.69 49.4449C116.846 49.5061 117.011 49.5368 117.187 49.5368C117.358 49.5368 117.52 49.498 117.67 49.4204C117.826 49.3387 117.96 49.2325 118.075 49.1019C118.189 48.9712 118.279 48.8242 118.344 48.6609C118.41 48.4935 118.442 48.322 118.442 48.1464V44.5205H120.114V51.0802H119.71L119.159 50.3146ZM124.683 51.0802C124.279 51.0802 123.9 51.0047 123.544 50.8536C123.189 50.6984 122.877 50.4881 122.607 50.2227C122.342 49.9532 122.132 49.6409 121.976 49.2856C121.825 48.9304 121.75 48.5506 121.75 48.1464V46.1987H120.935V44.5328H121.75V41.9114H123.416V44.5328H125.951V46.1987H123.416V48.1464C123.416 48.322 123.448 48.4874 123.513 48.6426C123.579 48.7936 123.669 48.9263 123.783 49.0406C123.897 49.155 124.032 49.2468 124.187 49.3163C124.343 49.3816 124.508 49.4143 124.683 49.4143H125.951V51.0802H124.683ZM133.233 47.7422C133.233 48.2322 133.145 48.6895 132.97 49.1141C132.795 49.5347 132.556 49.9001 132.254 50.2105C131.952 50.5167 131.596 50.7596 131.188 50.9394C130.784 51.1149 130.349 51.2027 129.883 51.2027C129.422 51.2027 128.987 51.1149 128.579 50.9394C128.175 50.7596 127.819 50.5167 127.513 50.2105C127.211 49.9001 126.972 49.5347 126.796 49.1141C126.621 48.6895 126.533 48.2322 126.533 47.7422C126.533 47.244 126.621 46.7826 126.796 46.358C126.972 45.9334 127.211 45.5679 127.513 45.2617C127.819 44.9513 128.175 44.7083 128.579 44.5328C128.987 44.3572 129.422 44.2695 129.883 44.2695C130.349 44.2695 130.784 44.3532 131.188 44.5205C131.596 44.6839 131.952 44.9187 132.254 45.2249C132.556 45.527 132.795 45.8925 132.97 46.3212C133.145 46.7459 133.233 47.2196 133.233 47.7422ZM131.549 47.7422C131.549 47.4727 131.504 47.2297 131.414 47.0134C131.329 46.7929 131.21 46.605 131.059 46.4499C130.909 46.2906 130.731 46.1702 130.527 46.0885C130.327 46.0028 130.112 45.9598 129.883 45.9598C129.655 45.9598 129.438 46.0028 129.234 46.0885C129.034 46.1702 128.858 46.2906 128.707 46.4499C128.56 46.605 128.444 46.7929 128.358 47.0134C128.272 47.2297 128.23 47.4727 128.23 47.7422C128.23 47.9953 128.272 48.2302 128.358 48.4465C128.444 48.6629 128.56 48.8508 128.707 49.01C128.858 49.1693 129.034 49.2959 129.234 49.3897C129.438 49.4796 129.655 49.5245 129.883 49.5245C130.112 49.5245 130.327 49.4817 130.527 49.3959C130.731 49.3102 130.909 49.1897 131.059 49.0345C131.21 48.8794 131.329 48.6916 131.414 48.4711C131.504 48.2506 131.549 48.0076 131.549 47.7422ZM135.831 51.0802H134.159V44.5205H134.563L135.114 45.2984C135.383 45.0534 135.69 44.8656 136.033 44.7349C136.375 44.6002 136.731 44.5328 137.098 44.5328H138.574V46.1987H137.098C136.922 46.1987 136.757 46.2314 136.602 46.2967C136.447 46.3621 136.312 46.4519 136.198 46.5663C136.083 46.6805 135.994 46.8153 135.929 46.9704C135.863 47.1256 135.831 47.291 135.831 47.4666V51.0802ZM142.88 51.0802H139.058V49.4143H142.88C142.994 49.4143 143.093 49.3734 143.174 49.2918C143.256 49.2101 143.297 49.1121 143.297 48.9978C143.297 48.8794 143.256 48.8018 143.174 48.765C143.093 48.7283 142.994 48.7099 142.88 48.7099H141.141C140.851 48.7099 140.579 48.6548 140.326 48.5445C140.073 48.4343 139.852 48.2853 139.665 48.0974C139.477 47.9055 139.328 47.683 139.217 47.4298C139.111 47.1766 139.058 46.9051 139.058 46.6152C139.058 46.3253 139.111 46.0538 139.217 45.8006C139.328 45.5474 139.477 45.3269 139.665 45.1391C139.852 44.9513 140.073 44.8043 140.326 44.6982C140.579 44.5879 140.851 44.5328 141.141 44.5328H144.527V46.1987H141.141C141.026 46.1987 140.928 46.2396 140.847 46.3212C140.765 46.4029 140.724 46.5009 140.724 46.6152C140.724 46.7336 140.765 46.8357 140.847 46.9214C140.928 47.0031 141.026 47.044 141.141 47.044H142.88C143.166 47.044 143.435 47.0929 143.688 47.1909C143.942 47.2849 144.162 47.4175 144.35 47.589C144.538 47.7605 144.687 47.9667 144.797 48.2076C144.907 48.4486 144.962 48.712 144.962 48.9978C144.962 49.2876 144.907 49.5592 144.797 49.8124C144.687 50.0614 144.538 50.2819 144.35 50.4739C144.162 50.6617 143.942 50.8107 143.688 50.921C143.435 51.0271 143.166 51.0802 142.88 51.0802Z" fill="#A3A3A3"/>
<path d="M77.5471 47.9322L77.5136 47.9227V47.9229L77.5471 47.9322ZM77.0941 49.0163L77.1241 49.0339V49.0337L77.0941 49.0163ZM75.4648 50.6517L75.4823 50.6817L75.483 50.6815L75.4648 50.6517ZM74.3805 51.1049L74.3715 51.0712V51.0714L74.3805 51.1049ZM71.9673 51.1049L71.977 51.0714V51.0713L71.9673 51.1049ZM70.8836 50.6517L70.8655 50.6815L70.8662 50.6818L70.8836 50.6517ZM69.2482 49.0163L69.218 49.0337L69.2183 49.0342L69.2482 49.0163ZM68.7888 47.9322L68.7552 47.9414L68.7554 47.9418L68.7888 47.9322ZM68.7888 45.519L68.7553 45.5096L68.7552 45.5098L68.7888 45.519ZM69.2482 44.435L69.2183 44.4171L69.2181 44.4174L69.2482 44.435ZM70.8836 42.8058L70.8662 42.7756V42.7757L70.8836 42.8058ZM71.9673 42.3526L71.977 42.3861V42.3861L71.9673 42.3526ZM74.3805 42.3526L74.3715 42.3861V42.3861L74.3805 42.3526ZM77.5471 45.519L77.5136 45.5282V45.5286L77.5471 45.519ZM75.7464 45.6416L75.7143 45.6553V45.6554L75.7464 45.6416ZM75.1464 44.7535L75.1213 44.7779L75.122 44.7783L75.1464 44.7535ZM74.2586 44.1533L74.2446 44.1852V44.1852L74.2586 44.1533ZM71.1958 44.7535L71.2202 44.7783V44.7781L71.1958 44.7535ZM70.5958 45.6416L70.6279 45.6554V45.6553L70.5958 45.6416ZM70.5958 47.8097L70.5638 47.8236V47.8237L70.5958 47.8097ZM74.2586 49.2919L74.2446 49.2599V49.2599L74.2586 49.2919ZM75.1464 48.6917L75.122 48.6671L75.1213 48.6673L75.1464 48.6917ZM75.7464 47.8097L75.7784 47.8237V47.8236L75.7464 47.8097ZM77.6781 46.7257C77.6781 47.139 77.623 47.538 77.5136 47.9227L77.5805 47.9418C77.692 47.5507 77.7478 47.1452 77.7478 46.7257H77.6781ZM77.5136 47.9229C77.4084 48.304 77.2586 48.6626 77.0641 48.9989L77.1241 49.0337C77.322 48.6922 77.4739 48.3282 77.5805 47.9416L77.5136 47.9229ZM77.0641 48.9987C76.8697 49.331 76.6342 49.6348 76.3589 49.9104L76.4084 49.9597C76.6878 49.6799 76.9269 49.3713 77.1241 49.0339L77.0641 48.9987ZM76.3589 49.9104C76.083 50.186 75.7791 50.4232 75.4467 50.6217L75.483 50.6815C75.8202 50.48 76.1282 50.2393 76.4084 49.9597L76.3589 49.9104ZM75.4474 50.6216C75.115 50.816 74.7568 50.9659 74.3715 51.0712L74.3903 51.1385C74.7805 51.0315 75.145 50.8793 75.4823 50.6817L75.4474 50.6216ZM74.3715 51.0714C73.9868 51.1807 73.5875 51.2354 73.1742 51.2354V51.3051C73.5938 51.3051 73.9993 51.2496 74.3903 51.1384L74.3715 51.0714ZM73.1742 51.2354C72.761 51.2354 72.3617 51.1807 71.977 51.0714L71.9582 51.1384C72.3492 51.2496 72.7547 51.3051 73.1742 51.3051V51.2354ZM71.977 51.0713C71.5958 50.9659 71.237 50.816 70.9011 50.6215L70.8662 50.6818C71.2077 50.8793 71.5715 51.0315 71.9582 51.1384L71.977 51.0713ZM70.9011 50.6217C70.5694 50.4232 70.2648 50.186 69.9896 49.9104L69.9401 49.9597C70.2195 50.2393 70.5282 50.48 70.8655 50.6815L70.9011 50.6217ZM69.9896 49.9104C69.7136 49.6347 69.4767 49.3308 69.2781 48.9984L69.2183 49.0342C69.4198 49.3715 69.6604 49.68 69.9401 49.9597L69.9896 49.9104ZM69.2784 48.9989C69.0838 48.6625 68.9318 48.3038 68.8223 47.9226L68.7554 47.9418C68.8664 48.3284 69.0206 48.6924 69.218 49.0337L69.2784 48.9989ZM68.8224 47.923C68.7171 47.5382 68.6644 47.1391 68.6644 46.7257H68.5947C68.5947 47.1451 68.6482 47.5504 68.7552 47.9414L68.8224 47.923ZM68.6644 46.7257C68.6644 46.3121 68.7171 45.9131 68.8224 45.5282L68.7552 45.5098C68.6482 45.9009 68.5947 46.3062 68.5947 46.7257H68.6644ZM68.8223 45.5286C68.9318 45.1434 69.0838 44.7848 69.2782 44.4526L69.2181 44.4174C69.0206 44.7549 68.8663 45.1189 68.7553 45.5096L68.8223 45.5286ZM69.2781 44.4528C69.4767 44.1205 69.7136 43.8165 69.9896 43.5409L69.9401 43.4917C69.6604 43.7713 69.4198 44.0798 69.2183 44.4171L69.2781 44.4528ZM69.9896 43.5409C70.2648 43.2653 70.5687 43.0303 70.9011 42.8358L70.8662 42.7757C70.5282 42.9733 70.2195 43.2119 69.9401 43.4917L69.9896 43.5409ZM70.9011 42.836C71.237 42.6415 71.5958 42.4915 71.977 42.3861L71.9582 42.319C71.5715 42.4259 71.2077 42.5781 70.8662 42.7756L70.9011 42.836ZM71.977 42.3861C72.3617 42.2767 72.761 42.222 73.1742 42.222V42.1524C72.7547 42.1524 72.3492 42.2079 71.9582 42.319L71.977 42.3861ZM73.1742 42.222C73.5875 42.222 73.9868 42.2767 74.3715 42.3861L74.3903 42.319C73.9993 42.2079 73.5938 42.1524 73.1742 42.1524V42.222ZM74.3715 42.3861C74.7568 42.4915 75.115 42.6415 75.4474 42.8358L75.4823 42.7757C75.145 42.5781 74.7805 42.4259 74.3903 42.319L74.3715 42.3861ZM75.4474 42.8358C75.7791 43.0303 76.0836 43.2653 76.3589 43.5409L76.4084 43.4917C76.1282 43.2119 75.8195 42.9733 75.4823 42.7757L75.4474 42.8358ZM76.3589 43.5409C76.6342 43.8165 76.8697 44.1204 77.0641 44.4526L77.1241 44.4174C76.9269 44.0799 76.6878 43.7714 76.4084 43.4917L76.3589 43.5409ZM77.0641 44.4526C77.2586 44.7847 77.4084 45.1432 77.5136 45.5282L77.5805 45.5098C77.4739 45.1191 77.322 44.7549 77.1241 44.4174L77.0641 44.4526ZM77.5136 45.5286C77.623 45.9133 77.6781 46.3123 77.6781 46.7257H77.7478C77.7478 46.3061 77.692 45.9006 77.5805 45.5096L77.5136 45.5286ZM76.0021 46.7257C76.0021 46.3372 75.9276 45.9712 75.7784 45.6277L75.7143 45.6554C75.86 45.9898 75.9324 46.3464 75.9324 46.7257H76.0021ZM75.7784 45.6278C75.63 45.2809 75.4272 44.9811 75.1708 44.7287L75.122 44.7783C75.3715 45.0241 75.5694 45.3163 75.7143 45.6553L75.7784 45.6278ZM75.1714 44.729C74.9185 44.4725 74.6188 44.2699 74.2718 44.1212L74.2446 44.1852C74.5833 44.3305 74.876 44.5281 75.1213 44.7779L75.1714 44.729ZM74.2718 44.1213C73.9289 43.9723 73.5624 43.8979 73.1742 43.8979V43.9676C73.5533 43.9676 73.9101 44.0402 74.2446 44.1852L74.2718 44.1213ZM73.1742 43.8979C72.7819 43.8979 72.4133 43.9723 72.0704 44.1213L72.0976 44.1852C72.4321 44.0402 72.791 43.9676 73.1742 43.9676V43.8979ZM72.0704 44.1213C71.7275 44.27 71.4279 44.4725 71.1715 44.7288L71.2202 44.7781C71.4704 44.5282 71.7631 44.3305 72.0976 44.1852L72.0704 44.1213ZM71.1715 44.7287C70.915 44.9811 70.7122 45.2809 70.5638 45.6278L70.6279 45.6553C70.7728 45.3163 70.9708 45.0241 71.2202 44.7783L71.1715 44.7287ZM70.5638 45.6277C70.4147 45.9712 70.3401 46.3372 70.3401 46.7257H70.4098C70.4098 46.3464 70.4823 45.9898 70.6279 45.6554L70.5638 45.6277ZM70.3401 46.7257C70.3401 47.114 70.4147 47.4802 70.5638 47.8236L70.6279 47.7958C70.4823 47.4615 70.4098 47.1049 70.4098 46.7257H70.3401ZM70.5638 47.8237C70.7122 48.1625 70.915 48.4601 71.1715 48.7163L71.2202 48.6671C70.9708 48.417 70.7728 48.1266 70.6272 47.7957L70.5638 47.8237ZM71.1715 48.7163C71.4279 48.9727 71.7275 49.1752 72.0704 49.3239L72.0976 49.2599C71.7631 49.1147 71.4704 48.917 71.2202 48.6671L71.1715 48.7163ZM72.0704 49.3239C72.4133 49.4729 72.7819 49.5473 73.1742 49.5473V49.4776C72.791 49.4776 72.4321 49.405 72.0976 49.2599L72.0704 49.3239ZM73.1742 49.5473C73.5624 49.5473 73.9289 49.4728 74.2718 49.3239L74.2446 49.2599C73.9101 49.405 73.5533 49.4776 73.1742 49.4776V49.5473ZM74.2718 49.324C74.6188 49.1753 74.9185 48.9727 75.1714 48.7161L75.1213 48.6673C74.876 48.917 74.5833 49.1146 74.2446 49.2599L74.2718 49.324ZM75.1708 48.7163C75.4272 48.4601 75.63 48.1625 75.7784 47.8237L75.715 47.7957C75.5694 48.1266 75.3715 48.417 75.122 48.6671L75.1708 48.7163ZM75.7784 47.8236C75.9276 47.4802 76.0021 47.114 76.0021 46.7257H75.9324C75.9324 47.1049 75.86 47.4615 75.7143 47.7958L75.7784 47.8236ZM80.3645 51.0804V51.1152H80.3993V51.0804H80.3645ZM78.6927 51.0804H78.6579V51.1152H78.6927V51.0804ZM78.6927 44.5207V44.4859H78.6579V44.5207H78.6927ZM79.0969 44.5207L79.1234 44.4979L79.1129 44.4859H79.0969V44.5207ZM79.6481 45.1577L79.6216 45.1805L79.6453 45.2075L79.6718 45.1835L79.6481 45.1577ZM80.5603 44.5942L80.5728 44.6267L80.5735 44.6266L80.5603 44.5942ZM82.7659 44.6248L82.7519 44.6568V44.6569L82.7659 44.6248ZM83.6962 45.2557L83.6718 45.2802V45.2804L83.6962 45.2557ZM84.3213 46.1928L84.2892 46.2063V46.2067L84.3213 46.1928ZM84.554 51.0804V51.1152H84.5889V51.0804H84.554ZM82.8823 51.0804H82.8474V51.1152H82.8823V51.0804ZM82.784 46.8482L82.7519 46.8617V46.862L82.784 46.8482ZM80.4627 46.8482L80.4948 46.862V46.8617L80.4627 46.8482ZM80.3645 51.0455H78.6927V51.1152H80.3645V51.0455ZM78.7275 51.0804V44.5207H78.6579V51.0804H78.7275ZM78.6927 44.5556H79.0969V44.4859H78.6927V44.5556ZM79.0704 44.5435L79.6216 45.1805L79.6746 45.1349L79.1234 44.4979L79.0704 44.5435ZM79.6718 45.1835C79.938 44.9414 80.2383 44.7558 80.5728 44.6267L80.5485 44.5617C80.2049 44.694 79.8976 44.8841 79.6244 45.1319L79.6718 45.1835ZM80.5735 44.6266C80.9122 44.4935 81.2655 44.4269 81.6328 44.4269V44.3572C81.2565 44.3572 80.8948 44.4255 80.5478 44.5618L80.5735 44.6266ZM81.6328 44.4269C82.0279 44.4269 82.4007 44.5036 82.7519 44.6567L82.7798 44.5929C82.4195 44.4358 82.037 44.3572 81.6328 44.3572V44.4269ZM82.7519 44.6569C83.1032 44.8062 83.4098 45.014 83.6718 45.2802L83.7213 45.2312C83.453 44.9584 83.1387 44.7456 82.7791 44.5928L82.7519 44.6569ZM83.6718 45.2804C83.9338 45.5425 84.1394 45.851 84.2892 46.2063L84.3533 46.1793C84.2007 45.816 83.9896 45.4998 83.7213 45.231L83.6718 45.2804ZM84.2892 46.2067C84.4425 46.5574 84.5192 46.9324 84.5192 47.332H84.5889C84.5889 46.9232 84.5101 46.5387 84.3533 46.1788L84.2892 46.2067ZM84.5192 47.332V51.0804H84.5889V47.332H84.5192ZM84.554 51.0455H82.8823V51.1152H84.554V51.0455ZM82.9171 51.0804V47.332H82.8474V51.0804H82.9171ZM82.9171 47.332C82.9171 47.156 82.883 46.9899 82.8161 46.8343L82.7519 46.862C82.8154 47.0085 82.8474 47.165 82.8474 47.332H82.9171ZM82.8161 46.8346C82.7492 46.6755 82.6565 46.5369 82.5394 46.4192L82.4899 46.4685C82.6007 46.5795 82.6878 46.7105 82.7519 46.8617L82.8161 46.8346ZM82.5394 46.4192C82.4216 46.3018 82.285 46.2095 82.1303 46.1425L82.1025 46.2064C82.2495 46.27 82.3784 46.3574 82.4899 46.4685L82.5394 46.4192ZM82.1303 46.1425C81.9742 46.0751 81.8084 46.0415 81.6328 46.0415V46.1112C81.7993 46.1112 81.9561 46.143 82.1025 46.2064L82.1303 46.1425ZM81.6328 46.0415C81.4523 46.0415 81.2823 46.0751 81.1227 46.1423L81.1498 46.2065C81.3004 46.1431 81.4614 46.1112 81.6328 46.1112V46.0415ZM81.1227 46.1423C80.9638 46.2093 80.8251 46.3016 80.7073 46.4192L80.7568 46.4685C80.8676 46.3575 80.9986 46.2702 81.1498 46.2065L81.1227 46.1423ZM80.7073 46.4192C80.5896 46.5369 80.4976 46.6755 80.4307 46.8346L80.4948 46.8617C80.5582 46.7105 80.646 46.5795 80.7568 46.4685L80.7073 46.4192ZM80.4307 46.8343C80.3631 46.9899 80.3296 47.156 80.3296 47.332H80.3993C80.3993 47.165 80.4314 47.0085 80.4948 46.862L80.4307 46.8343ZM80.3296 47.332V51.0804H80.3993V47.332H80.3296ZM87.4328 51.0804V51.1152H87.4676V51.0804H87.4328ZM85.7485 51.0804H85.7136V51.1152H85.7485V51.0804ZM85.7485 41.9116V41.8767H85.7136V41.9116H85.7485ZM87.4328 41.9116H87.4676V41.8767H87.4328V41.9116ZM87.4328 51.0455H85.7485V51.1152H87.4328V51.0455ZM85.7833 51.0804V41.9116H85.7136V51.0804H85.7833ZM85.7485 41.9464H87.4328V41.8767H85.7485V41.9464ZM87.3979 41.9116V51.0804H87.4676V41.9116H87.3979ZM90.5931 43.1733L90.561 43.1588V43.1597L90.5931 43.1733ZM90.354 43.5285L90.3784 43.5537L90.3791 43.5531L90.354 43.5285ZM89.9931 43.7674L90.0063 43.7995L90.007 43.7993L89.9931 43.7674ZM89.1171 43.7674L89.1025 43.7991L89.1032 43.7994L89.1039 43.7996L89.1171 43.7674ZM88.7617 43.5285L88.7366 43.5526L88.7373 43.5531V43.5537L88.7617 43.5285ZM88.5227 43.1733L88.4906 43.1869L88.4913 43.1877L88.5227 43.1733ZM88.5227 42.3097L88.4913 42.2956L88.4906 42.296L88.5227 42.3097ZM89.1171 41.7156L89.1303 41.7477L89.131 41.7475L89.1171 41.7156ZM89.9931 41.7156L89.9784 41.7473L89.9791 41.7475L89.9798 41.7478L89.9931 41.7156ZM90.354 41.9544L90.3296 41.9791L90.3303 41.9796L90.354 41.9544ZM90.5931 42.3097L90.561 42.3229V42.3235V42.3241L90.5931 42.3097ZM90.3972 51.0804V51.1152H90.4321V51.0804H90.3972ZM88.7129 51.0804H88.6781V51.1152H88.7129V51.0804ZM88.7129 44.5207V44.4859H88.6781V44.5207H88.7129ZM90.3972 44.5207H90.4321V44.4859H90.3972V44.5207ZM90.6502 42.7384C90.6502 42.8889 90.6202 43.0289 90.561 43.1588L90.6244 43.1877C90.6878 43.0482 90.7199 42.8983 90.7199 42.7384H90.6502ZM90.561 43.1597C90.5053 43.2903 90.4286 43.405 90.3296 43.5038L90.3791 43.5531C90.4843 43.4479 90.5666 43.3257 90.6251 43.1868L90.561 43.1597ZM90.3303 43.5034C90.2314 43.5983 90.1143 43.6758 89.9784 43.7355L90.007 43.7993C90.1492 43.7365 90.2732 43.6547 90.3784 43.5537L90.3303 43.5034ZM89.9791 43.7353C89.8488 43.7905 89.7087 43.8183 89.5582 43.8183V43.888C89.7178 43.888 89.8669 43.8586 90.0063 43.7995L89.9791 43.7353ZM89.5582 43.8183C89.407 43.8183 89.2648 43.7905 89.1303 43.7351L89.1039 43.7996C89.2467 43.8586 89.3986 43.888 89.5582 43.888V43.8183ZM89.1317 43.7356C89 43.676 88.885 43.5985 88.7861 43.5034L88.7373 43.5537C88.8425 43.6545 88.9645 43.7363 89.1025 43.7991L89.1317 43.7356ZM88.7868 43.5044C88.692 43.4052 88.614 43.2902 88.5547 43.1588L88.4913 43.1877C88.554 43.3259 88.6356 43.4476 88.7366 43.5526L88.7868 43.5044ZM88.5547 43.1597C88.4997 43.0295 88.4718 42.8892 88.4718 42.7384H88.4021C88.4021 42.898 88.4314 43.0475 88.4906 43.1868L88.5547 43.1597ZM88.4718 42.7384C88.4718 42.5919 88.4997 42.4536 88.5547 42.3233L88.4906 42.296C88.4321 42.4353 88.4021 42.5828 88.4021 42.7384H88.4718ZM88.5547 42.3237C88.6147 42.1884 88.692 42.0737 88.7861 41.9791L88.7373 41.9298C88.6356 42.0311 88.554 42.1532 88.4913 42.2956L88.5547 42.3237ZM88.7861 41.9791C88.885 41.8802 89 41.8031 89.1303 41.7477L89.1032 41.6835C88.9645 41.7424 88.8425 41.8245 88.7373 41.9298L88.7861 41.9791ZM89.131 41.7475C89.2655 41.6882 89.4077 41.6586 89.5582 41.6586V41.5889C89.3979 41.5889 89.246 41.6204 89.1032 41.6837L89.131 41.7475ZM89.5582 41.6586C89.708 41.6586 89.8481 41.6882 89.9784 41.7473L90.007 41.6838C89.8676 41.6204 89.7178 41.5889 89.5582 41.5889V41.6586ZM89.9798 41.7478C90.1143 41.8033 90.2307 41.8804 90.3296 41.9791L90.3791 41.9298C90.2732 41.8243 90.1492 41.7422 90.0063 41.6834L89.9798 41.7478ZM90.3303 41.9796C90.4286 42.074 90.5053 42.1883 90.561 42.3229L90.6251 42.2964C90.5666 42.1534 90.4843 42.0309 90.3784 41.9293L90.3303 41.9796ZM90.561 42.3241C90.6202 42.4542 90.6502 42.5922 90.6502 42.7384H90.7199C90.7199 42.5825 90.6878 42.4347 90.6244 42.2953L90.561 42.3241ZM90.3972 51.0455H88.7129V51.1152H90.3972V51.0455ZM88.7478 51.0804V44.5207H88.6781V51.0804H88.7478ZM88.7129 44.5556H90.3972V44.4859H88.7129V44.5556ZM90.3624 44.5207V51.0804H90.4321V44.5207H90.3624ZM93.3492 51.0804V51.1152H93.384V51.0804H93.3492ZM91.6774 51.0804H91.6425V51.1152H91.6774V51.0804ZM91.6774 44.5207V44.4859H91.6425V44.5207H91.6774ZM92.0816 44.5207L92.108 44.4979L92.0976 44.4859H92.0816V44.5207ZM92.6328 45.1577L92.6063 45.1805L92.6293 45.2075L92.6558 45.1835L92.6328 45.1577ZM93.545 44.5942L93.5575 44.6267L93.5582 44.6266L93.545 44.5942ZM95.7499 44.6248L95.7359 44.6568L95.7366 44.6569L95.7499 44.6248ZM96.6809 45.2557L96.6565 45.2802V45.2804L96.6809 45.2557ZM97.3059 46.1928L97.2739 46.2063V46.2067L97.3059 46.1928ZM97.5387 51.0804V51.1152H97.5735V51.0804H97.5387ZM95.8662 51.0804H95.8314V51.1152H95.8662V51.0804ZM95.7687 46.8482L95.7366 46.8617V46.862L95.7687 46.8482ZM93.4474 46.8482L93.4795 46.862V46.8617L93.4474 46.8482ZM93.3492 51.0455H91.6774V51.1152H93.3492V51.0455ZM91.7122 51.0804V44.5207H91.6425V51.0804H91.7122ZM91.6774 44.5556H92.0816V44.4859H91.6774V44.5556ZM92.0551 44.5435L92.6063 45.1805L92.6593 45.1349L92.108 44.4979L92.0551 44.5435ZM92.6558 45.1835C92.9227 44.9414 93.223 44.7558 93.5575 44.6267L93.5324 44.5617C93.1896 44.694 92.8816 44.8841 92.6091 45.1319L92.6558 45.1835ZM93.5582 44.6266C93.8969 44.4935 94.2495 44.4269 94.6167 44.4269V44.3572C94.2411 44.3572 93.8795 44.4255 93.5324 44.5618L93.5582 44.6266ZM94.6167 44.4269C95.0126 44.4269 95.3854 44.5036 95.7359 44.6567L95.7638 44.5929C95.4042 44.4358 95.0216 44.3572 94.6167 44.3572V44.4269ZM95.7366 44.6569C96.0878 44.8062 96.3945 45.014 96.6565 45.2802L96.7059 45.2312C96.437 44.9584 96.1234 44.7456 95.7638 44.5928L95.7366 44.6569ZM96.6565 45.2804C96.9185 45.5425 97.1241 45.851 97.2739 46.2063L97.338 46.1793C97.1854 45.816 96.9742 45.4998 96.7059 45.231L96.6565 45.2804ZM97.2739 46.2067C97.4272 46.5574 97.5039 46.9324 97.5039 47.332H97.5735C97.5735 46.9232 97.4948 46.5387 97.338 46.1788L97.2739 46.2067ZM97.5039 47.332V51.0804H97.5735V47.332H97.5039ZM97.5387 51.0455H95.8662V51.1152H97.5387V51.0455ZM95.9011 51.0804V47.332H95.8314V51.0804H95.9011ZM95.9011 47.332C95.9011 47.156 95.8676 46.9899 95.8007 46.8343L95.7366 46.862C95.8 47.0085 95.8314 47.165 95.8314 47.332H95.9011ZM95.8007 46.8346C95.7338 46.6755 95.6411 46.5369 95.5234 46.4192L95.4746 46.4685C95.5854 46.5795 95.6725 46.7105 95.7366 46.8617L95.8007 46.8346ZM95.5234 46.4192C95.4063 46.3018 95.2697 46.2095 95.115 46.1425L95.0871 46.2064C95.2342 46.27 95.3631 46.3574 95.4746 46.4685L95.5234 46.4192ZM95.115 46.1425C94.9589 46.0751 94.7931 46.0415 94.6167 46.0415V46.1112C94.784 46.1112 94.9408 46.143 95.0871 46.2064L95.115 46.1425ZM94.6167 46.0415C94.437 46.0415 94.2669 46.0751 94.1073 46.1423L94.1345 46.2065C94.285 46.1431 94.446 46.1112 94.6167 46.1112V46.0415ZM94.1073 46.1423C93.9485 46.2093 93.8098 46.3016 93.692 46.4192L93.7415 46.4685C93.8523 46.3575 93.9833 46.2702 94.1345 46.2065L94.1073 46.1423ZM93.692 46.4192C93.5742 46.5369 93.4823 46.6755 93.4154 46.8346L93.4795 46.8617C93.5429 46.7105 93.63 46.5795 93.7415 46.4685L93.692 46.4192ZM93.4154 46.8343C93.3478 46.9899 93.3143 47.156 93.3143 47.332H93.384C93.384 47.165 93.4161 47.0085 93.4795 46.862L93.4154 46.8343ZM93.3143 47.332V51.0804H93.384V47.332H93.3143ZM101.342 49.4757L101.315 49.4534L101.282 49.4934L101.332 49.5089L101.342 49.4757ZM101.538 49.5186L101.534 49.5531L101.535 49.5533L101.536 49.5533L101.538 49.5186ZM102.628 49.2674L102.647 49.297V49.2968L102.628 49.2674ZM102.983 48.9612L102.957 48.9383V48.9384L102.983 48.9612ZM103.24 48.557L103.266 48.5324L103.229 48.4963L103.209 48.5428L103.24 48.557ZM104.466 49.788L104.494 49.8081L104.511 49.7842L104.491 49.7634L104.466 49.788ZM103.927 50.3821L103.904 50.3557V50.356L103.927 50.3821ZM103.271 50.8292L103.255 50.7983V50.7984L103.271 50.8292ZM102.53 51.1049L102.522 51.071V51.0711L102.53 51.1049ZM100.429 50.9456L100.416 50.9777L100.429 50.9456ZM99.3638 50.229L99.3387 50.2535L99.3394 50.2537L99.3638 50.229ZM98.6474 49.1388L98.6147 49.1521V49.1522L98.6474 49.1388ZM99.3638 45.2251L99.3394 45.2003V45.2004L99.3638 45.2251ZM100.429 44.5207L100.416 44.4885L100.429 44.5207ZM103.277 44.6494L103.261 44.6802V44.6803L103.277 44.6494ZM103.939 45.1026L103.916 45.1287L103.916 45.129L103.939 45.1026ZM104.478 45.6967L104.505 45.7189L104.522 45.6984L104.507 45.6766L104.478 45.6967ZM102.199 46.0274L102.227 46.0484L102.256 46.011L102.212 45.9947L102.199 46.0274ZM101.967 45.9723L101.963 46.0069L101.967 45.9723ZM101.085 46.0887L101.098 46.1209V46.1208L101.085 46.0887ZM100.558 46.4439L100.533 46.4196L100.532 46.4199L100.558 46.4439ZM100.209 47.0074L100.241 47.0202V47.02L100.209 47.0074ZM100.086 47.9506L100.052 47.9524V47.9533V47.9542L100.086 47.9506ZM100.117 48.1895L100.083 48.1947V48.1956V48.1967L100.117 48.1895ZM100.252 48.6121L100.222 48.6294L100.248 48.6753L100.279 48.633L100.252 48.6121ZM101.332 49.5089C101.399 49.5299 101.466 49.5447 101.534 49.5531L101.542 49.484C101.479 49.476 101.416 49.4622 101.353 49.4424L101.332 49.5089ZM101.536 49.5533C101.602 49.5574 101.668 49.5595 101.734 49.5595V49.4898C101.67 49.4898 101.605 49.4878 101.54 49.4838L101.536 49.5533ZM101.734 49.5595C101.9 49.5595 102.061 49.5366 102.215 49.4907L102.196 49.4239C102.048 49.4678 101.894 49.4898 101.734 49.4898V49.5595ZM102.215 49.4907C102.369 49.4449 102.514 49.3804 102.647 49.297L102.61 49.2379C102.482 49.3179 102.344 49.3799 102.196 49.4239L102.215 49.4907ZM102.647 49.2968C102.785 49.2093 102.905 49.105 103.01 48.9839L102.957 48.9384C102.857 49.0542 102.741 49.1541 102.61 49.2381L102.647 49.2968ZM103.01 48.984C103.118 48.8589 103.206 48.7213 103.272 48.5711L103.209 48.5428C103.145 48.6866 103.061 48.8185 102.957 48.9383L103.01 48.984ZM103.216 48.5816L104.441 49.8126L104.491 49.7634L103.266 48.5324L103.216 48.5816ZM104.437 49.768C104.284 49.9861 104.106 50.182 103.904 50.3557L103.949 50.4086C104.155 50.2311 104.337 50.031 104.494 49.8081L104.437 49.768ZM103.904 50.356C103.706 50.5296 103.49 50.6771 103.255 50.7983L103.287 50.8602C103.527 50.7364 103.748 50.5858 103.95 50.4083L103.904 50.356ZM103.255 50.7984C103.025 50.9195 102.781 51.0103 102.522 51.071L102.538 51.1388C102.802 51.0769 103.052 50.984 103.288 50.8601L103.255 50.7984ZM102.522 51.0711C102.268 51.1357 102.005 51.168 101.734 51.168V51.2377C102.01 51.2377 102.279 51.2047 102.539 51.1386L102.522 51.0711ZM101.734 51.168C101.277 51.168 100.847 51.0832 100.443 50.9135L100.416 50.9777C100.829 51.1511 101.268 51.2377 101.734 51.2377V51.168ZM100.443 50.9135C100.043 50.7438 99.6913 50.5074 99.3882 50.2044L99.3394 50.2537C99.6488 50.5631 100.008 50.8045 100.416 50.9777L100.443 50.9135ZM99.3889 50.2045C99.0899 49.9017 98.853 49.5421 98.6795 49.1254L98.6147 49.1522C98.7924 49.5767 99.0335 49.9439 99.3387 50.2535L99.3889 50.2045ZM98.6795 49.1255C98.506 48.7055 98.4188 48.2445 98.4188 47.7424H98.3492C98.3492 48.2528 98.4377 48.7228 98.6147 49.1521L98.6795 49.1255ZM98.4188 47.7424C98.4188 47.2278 98.506 46.7587 98.6795 46.3346L98.6147 46.3082C98.4377 46.7416 98.3492 47.2198 98.3492 47.7424H98.4188ZM98.6795 46.3346C98.8537 45.9098 99.0899 45.5483 99.3882 45.2497L99.3394 45.2004C99.0335 45.5061 98.7924 45.8756 98.6147 46.3082L98.6795 46.3346ZM99.3882 45.2498C99.6913 44.951 100.043 44.7186 100.443 44.5529L100.416 44.4885C100.008 44.6576 99.6488 44.8949 99.3394 45.2003L99.3882 45.2498ZM100.443 44.553C100.847 44.3873 101.277 44.3045 101.734 44.3045V44.2348C101.268 44.2348 100.829 44.3192 100.416 44.4885L100.443 44.553ZM101.734 44.3045C102.005 44.3045 102.27 44.3368 102.528 44.4014L102.545 44.3338C102.281 44.2678 102.01 44.2348 101.734 44.2348V44.3045ZM102.528 44.4014C102.787 44.4661 103.031 44.559 103.261 44.6802L103.293 44.6185C103.059 44.4947 102.809 44.3998 102.545 44.3338L102.528 44.4014ZM103.261 44.6803C103.495 44.8015 103.714 44.9509 103.916 45.1287L103.962 45.0764C103.755 44.8949 103.533 44.7422 103.293 44.6184L103.261 44.6803ZM103.916 45.129C104.118 45.3027 104.296 45.4986 104.45 45.7167L104.507 45.6766C104.35 45.4538 104.168 45.2536 103.962 45.0762L103.916 45.129ZM104.451 45.6744L101.315 49.4534L101.369 49.4979L104.505 45.7189L104.451 45.6744ZM102.212 45.9947C102.132 45.9652 102.051 45.9462 101.97 45.9376L101.963 46.0069C102.038 46.0148 102.112 46.0325 102.187 46.0601L102.212 45.9947ZM101.971 45.9376C101.895 45.9294 101.817 45.9252 101.734 45.9252V45.9949C101.815 45.9949 101.891 45.9989 101.963 46.0069L101.971 45.9376ZM101.734 45.9252C101.501 45.9252 101.28 45.9689 101.071 46.0565L101.098 46.1208C101.298 46.0369 101.51 45.9949 101.734 45.9949V45.9252ZM101.072 46.0564C100.867 46.1399 100.688 46.261 100.533 46.4196L100.583 46.4682C100.731 46.3165 100.902 46.2008 101.098 46.1209L101.072 46.0564ZM100.532 46.4199C100.383 46.5787 100.263 46.7705 100.176 46.9948L100.241 47.02C100.325 46.8033 100.44 46.6194 100.583 46.4679L100.532 46.4199ZM100.176 46.9946C100.089 47.2157 100.045 47.4652 100.045 47.7424H100.115C100.115 47.4724 100.158 47.2319 100.241 47.0202L100.176 46.9946ZM100.045 47.7424C100.045 47.8043 100.047 47.8744 100.052 47.9524L100.121 47.9488C100.117 47.8717 100.115 47.8029 100.115 47.7424H100.045ZM100.052 47.9542C100.06 48.0324 100.07 48.1125 100.083 48.1947L100.151 48.1843C100.139 48.1031 100.129 48.024 100.121 47.947L100.052 47.9542ZM100.083 48.1967C100.1 48.2749 100.118 48.3512 100.139 48.4254L100.206 48.4068C100.185 48.334 100.167 48.2592 100.151 48.1823L100.083 48.1967ZM100.139 48.4254C100.16 48.5013 100.187 48.5694 100.222 48.6294L100.282 48.5948C100.251 48.5405 100.226 48.4779 100.206 48.4068L100.139 48.4254ZM100.279 48.633L102.227 46.0484L102.171 46.0064L100.224 48.5911L100.279 48.633ZM110.989 50.8537L110.975 50.8857V50.8858L110.989 50.8537ZM110.052 50.2229L110.027 50.2473L110.027 50.2478L110.052 50.2229ZM109.421 49.2858L109.389 49.2995V49.2997L109.421 49.2858ZM109.194 46.1989H109.229V46.1641H109.194V46.1989ZM108.379 46.1989H108.344V46.2337H108.379V46.1989ZM108.379 44.533V44.4981H108.344V44.533H108.379ZM109.194 44.533V44.5678H109.229V44.533H109.194ZM109.194 41.9116V41.8767H109.159V41.9116H109.194ZM110.86 41.9116H110.895V41.8767H110.86V41.9116ZM110.86 44.533H110.825V44.5678H110.86V44.533ZM113.396 44.533H113.431V44.4981H113.396V44.533ZM113.396 46.1989V46.2337H113.431V46.1989H113.396ZM110.86 46.1989V46.1641H110.825V46.1989H110.86ZM110.958 48.6427L110.926 48.6563V48.6565L110.958 48.6427ZM111.631 49.3165L111.617 49.3482L111.618 49.3485L111.631 49.3165ZM113.396 49.4144H113.431V49.3796H113.396V49.4144ZM113.396 51.0804V51.1152H113.431V51.0804H113.396ZM112.128 51.0455C111.728 51.0455 111.353 50.9708 111.002 50.8217L110.975 50.8858C111.335 51.0388 111.719 51.1152 112.128 51.1152V51.0455ZM111.003 50.8218C110.651 50.6683 110.342 50.4604 110.076 50.1981L110.027 50.2478C110.3 50.5162 110.615 50.7289 110.975 50.8857L111.003 50.8218ZM110.076 50.1984C109.814 49.9321 109.606 49.6233 109.452 49.2719L109.389 49.2997C109.546 49.6588 109.758 49.9747 110.027 50.2473L110.076 50.1984ZM109.453 49.2721C109.304 48.9214 109.229 48.5464 109.229 48.1466H109.159C109.159 48.5553 109.236 48.9397 109.389 49.2995L109.453 49.2721ZM109.229 48.1466V46.1989H109.159V48.1466H109.229ZM109.194 46.1641H108.379V46.2337H109.194V46.1641ZM108.414 46.1989V44.533H108.344V46.1989H108.414ZM108.379 44.5678H109.194V44.4981H108.379V44.5678ZM109.229 44.533V41.9116H109.159V44.533H109.229ZM109.194 41.9464H110.86V41.8767H109.194V41.9464ZM110.825 41.9116V44.533H110.895V41.9116H110.825ZM110.86 44.5678H113.396V44.4981H110.86V44.5678ZM113.361 44.533V46.1989H113.431V44.533H113.361ZM113.396 46.1641H110.86V46.2337H113.396V46.1641ZM110.825 46.1989V48.1466H110.895V46.1989H110.825ZM110.825 48.1466C110.825 48.3266 110.859 48.4966 110.926 48.6563L110.99 48.6292C110.927 48.4785 110.895 48.3177 110.895 48.1466H110.825ZM110.926 48.6565C110.993 48.8116 111.085 48.948 111.203 49.0655L111.252 49.0162C111.141 48.905 111.054 48.776 110.99 48.6289L110.926 48.6565ZM111.203 49.0655C111.321 49.1829 111.459 49.2772 111.617 49.3482L111.646 49.2846C111.494 49.2169 111.363 49.1273 111.252 49.0162L111.203 49.0655ZM111.618 49.3485C111.778 49.4158 111.948 49.4493 112.128 49.4493V49.3796C111.957 49.3796 111.796 49.3478 111.645 49.2843L111.618 49.3485ZM112.128 49.4493H113.396V49.3796H112.128V49.4493ZM113.361 49.4144V51.0804H113.431V49.4144H113.361ZM113.396 51.0455H112.128V51.1152H113.396V51.0455ZM119.159 50.3148L119.187 50.2944L119.164 50.2627L119.136 50.289L119.159 50.3148ZM118.724 50.6639L118.744 50.6924V50.6923L118.724 50.6639ZM118.247 50.9456L118.261 50.9772L118.262 50.977L118.247 50.9456ZM117.726 51.1294L117.717 51.0956L117.716 51.0958L117.726 51.1294ZM115.111 50.3821L115.086 50.4068L115.086 50.4071L115.111 50.3821ZM114.479 49.4206L114.447 49.4334V49.4339L114.479 49.4206ZM114.253 44.5207V44.4859H114.218V44.5207H114.253ZM115.919 44.5207H115.954V44.4859H115.919V44.5207ZM116.017 48.7407L115.985 48.7528V48.7533V48.7537L116.017 48.7407ZM116.691 49.445L116.677 49.4774L116.678 49.4774L116.691 49.445ZM117.67 49.4206L117.686 49.4515L117.687 49.4514L117.67 49.4206ZM118.344 48.6611L118.377 48.674V48.6737L118.344 48.6611ZM118.443 44.5207V44.4859H118.408V44.5207H118.443ZM120.114 44.5207H120.149V44.4859H120.114V44.5207ZM120.114 51.0804V51.1152H120.149V51.0804H120.114ZM119.71 51.0804L119.682 51.1007L119.693 51.1152H119.71V51.0804ZM119.136 50.289C119.002 50.4105 118.858 50.526 118.704 50.6355L118.744 50.6923C118.9 50.5813 119.047 50.4641 119.183 50.3406L119.136 50.289ZM118.704 50.6353C118.555 50.7404 118.397 50.8335 118.231 50.9143L118.262 50.977C118.431 50.8944 118.592 50.7996 118.744 50.6924L118.704 50.6353ZM118.232 50.914C118.066 50.9907 117.895 51.0512 117.717 51.0956L117.735 51.1632C117.916 51.1177 118.092 51.0558 118.261 50.9772L118.232 50.914ZM117.716 51.0958C117.544 51.1439 117.367 51.168 117.187 51.168V51.2377C117.374 51.2377 117.557 51.2128 117.735 51.1629L117.716 51.0958ZM117.187 51.168C116.787 51.168 116.411 51.0973 116.061 50.9562L116.035 51.0209C116.394 51.1655 116.778 51.2377 117.187 51.2377V51.168ZM116.061 50.9562C115.709 50.8149 115.401 50.6152 115.135 50.3572L115.086 50.4071C115.359 50.6717 115.675 50.8763 116.035 51.0209L116.061 50.9562ZM115.135 50.3575C114.873 50.0956 114.666 49.779 114.512 49.4073L114.447 49.4339C114.604 49.8134 114.817 50.1379 115.086 50.4068L115.135 50.3575ZM114.512 49.4077C114.363 49.0326 114.288 48.6124 114.288 48.1466H114.218C114.218 48.6199 114.294 49.049 114.447 49.4334L114.512 49.4077ZM114.288 48.1466V44.5207H114.218V48.1466H114.288ZM114.253 44.5556H115.919V44.4859H114.253V44.5556ZM115.884 44.5207V48.1466H115.954V44.5207H115.884ZM115.884 48.1466C115.884 48.3705 115.917 48.5728 115.985 48.7528L116.05 48.7285C115.986 48.5575 115.954 48.3636 115.954 48.1466H115.884ZM115.985 48.7537C116.056 48.9289 116.15 49.0778 116.268 49.1997L116.318 49.1514C116.207 49.0365 116.117 48.8955 116.05 48.7276L115.985 48.7537ZM116.268 49.1997C116.385 49.3216 116.522 49.4142 116.677 49.4774L116.704 49.4128C116.558 49.3533 116.429 49.2663 116.318 49.1514L116.268 49.1997ZM116.678 49.4774C116.838 49.5404 117.007 49.5718 117.187 49.5718V49.5021C117.015 49.5021 116.854 49.4722 116.704 49.4126L116.678 49.4774ZM117.187 49.5718C117.364 49.5718 117.53 49.5317 117.686 49.4515L117.655 49.3896C117.509 49.4645 117.353 49.5021 117.187 49.5021V49.5718ZM117.687 49.4514C117.846 49.3678 117.984 49.2589 118.101 49.125L118.049 49.0791C117.937 49.2065 117.806 49.3101 117.654 49.3897L117.687 49.4514ZM118.101 49.125C118.218 48.9913 118.31 48.8409 118.377 48.674L118.312 48.6482C118.248 48.8078 118.16 48.9514 118.049 49.0791L118.101 49.125ZM118.377 48.6737C118.444 48.5024 118.477 48.3266 118.477 48.1466H118.408C118.408 48.3177 118.376 48.485 118.312 48.6484L118.377 48.6737ZM118.477 48.1466V44.5207H118.408V48.1466H118.477ZM118.443 44.5556H120.114V44.4859H118.443V44.5556ZM120.079 44.5207V51.0804H120.149V44.5207H120.079ZM120.114 51.0455H119.71V51.1152H120.114V51.0455ZM119.739 51.06L119.187 50.2944L119.131 50.3351L119.682 51.1007L119.739 51.06ZM123.544 50.8537L123.53 50.8857L123.531 50.8858L123.544 50.8537ZM122.607 50.2229L122.583 50.2473V50.2478L122.607 50.2229ZM121.976 49.2858L121.944 49.2995V49.2997L121.976 49.2858ZM121.75 46.1989H121.785V46.1641H121.75V46.1989ZM120.935 46.1989H120.9V46.2337H120.935V46.1989ZM120.935 44.533V44.4981H120.9V44.533H120.935ZM121.75 44.533V44.5678H121.785V44.533H121.75ZM121.75 41.9116V41.8767H121.715V41.9116H121.75ZM123.416 41.9116H123.451V41.8767H123.416V41.9116ZM123.416 44.533H123.381V44.5678H123.416V44.533ZM125.951 44.533H125.986V44.4981H125.951V44.533ZM125.951 46.1989V46.2337H125.986V46.1989H125.951ZM123.416 46.1989V46.1641H123.381V46.1989H123.416ZM123.514 48.6427L123.482 48.6563V48.6565L123.514 48.6427ZM124.187 49.3165L124.174 49.3482L124.174 49.3485L124.187 49.3165ZM125.951 49.4144H125.986V49.3796H125.951V49.4144ZM125.951 51.0804V51.1152H125.986V51.0804H125.951ZM124.684 51.0455C124.284 51.0455 123.909 50.9708 123.558 50.8217L123.531 50.8858C123.891 51.0388 124.275 51.1152 124.684 51.1152V51.0455ZM123.558 50.8218C123.207 50.6683 122.898 50.4604 122.631 50.1981L122.583 50.2478C122.856 50.5162 123.171 50.7289 123.53 50.8857L123.558 50.8218ZM122.632 50.1984C122.37 49.9321 122.162 49.6233 122.008 49.2719L121.944 49.2997C122.101 49.6588 122.314 49.9747 122.583 50.2473L122.632 50.1984ZM122.008 49.2721C121.859 48.9214 121.785 48.5464 121.785 48.1466H121.715C121.715 48.5553 121.792 48.9397 121.944 49.2995L122.008 49.2721ZM121.785 48.1466V46.1989H121.715V48.1466H121.785ZM121.75 46.1641H120.935V46.2337H121.75V46.1641ZM120.97 46.1989V44.533H120.9V46.1989H120.97ZM120.935 44.5678H121.75V44.4981H120.935V44.5678ZM121.785 44.533V41.9116H121.715V44.533H121.785ZM121.75 41.9464H123.416V41.8767H121.75V41.9464ZM123.381 41.9116V44.533H123.451V41.9116H123.381ZM123.416 44.5678H125.951V44.4981H123.416V44.5678ZM125.916 44.533V46.1989H125.986V44.533H125.916ZM125.951 46.1641H123.416V46.2337H125.951V46.1641ZM123.381 46.1989V48.1466H123.451V46.1989H123.381ZM123.381 48.1466C123.381 48.3266 123.415 48.4966 123.482 48.6563L123.546 48.6292C123.482 48.4785 123.451 48.3177 123.451 48.1466H123.381ZM123.482 48.6565C123.549 48.8116 123.641 48.948 123.759 49.0655L123.808 49.0162C123.697 48.905 123.609 48.776 123.546 48.6289L123.482 48.6565ZM123.759 49.0655C123.876 49.1829 124.015 49.2772 124.174 49.3482L124.201 49.2846C124.05 49.2169 123.919 49.1273 123.808 49.0162L123.759 49.0655ZM124.174 49.3485C124.334 49.4158 124.504 49.4493 124.684 49.4493V49.3796C124.512 49.3796 124.352 49.3478 124.201 49.2843L124.174 49.3485ZM124.684 49.4493H125.951V49.3796H124.684V49.4493ZM125.916 49.4144V51.0804H125.986V49.4144H125.916ZM125.951 51.0455H124.684V51.1152H125.951V51.0455ZM132.97 49.1143L133.003 49.1278V49.1276L132.97 49.1143ZM132.254 50.2107L132.279 50.2351V50.2349L132.254 50.2107ZM131.188 50.9395L131.202 50.9714V50.9714L131.188 50.9395ZM128.579 50.9395L128.564 50.9713L128.565 50.9715L128.579 50.9395ZM127.513 50.2107L127.489 50.2349V50.2353L127.513 50.2107ZM126.797 49.1143L126.764 49.1276V49.1278L126.797 49.1143ZM127.513 45.2618L127.489 45.2374L127.513 45.2618ZM128.579 44.533L128.565 44.501L128.579 44.533ZM131.188 44.5207L131.175 44.5529V44.553L131.188 44.5207ZM132.254 45.2251L132.229 45.2496V45.2497L132.254 45.2251ZM132.97 46.3214L132.938 46.3346V46.3347L132.97 46.3214ZM131.415 47.0135L131.382 47.0262L131.383 47.0268L131.415 47.0135ZM131.059 46.4501L131.034 46.474V46.4743L131.059 46.4501ZM130.527 46.0887L130.513 46.1207L130.514 46.121L130.527 46.0887ZM129.234 46.0887L129.247 46.1209L129.248 46.1208L129.234 46.0887ZM128.707 46.4501L128.682 46.4261L128.707 46.4501ZM128.358 47.0135L128.391 47.0264V47.0262L128.358 47.0135ZM128.707 49.0102L128.682 49.0338V49.0342L128.707 49.0102ZM129.234 49.3899L129.22 49.4215L129.22 49.4218L129.234 49.3899ZM130.527 49.396L130.513 49.3639V49.3641L130.527 49.396ZM131.415 48.4712L131.383 48.4581L131.382 48.4586L131.415 48.4712ZM133.199 47.7424C133.199 48.2281 133.112 48.6809 132.938 49.101L133.003 49.1276C133.18 48.6985 133.268 48.2366 133.268 47.7424H133.199ZM132.938 49.1009C132.764 49.5176 132.528 49.8793 132.229 50.1864L132.279 50.2349C132.584 49.9213 132.825 49.5521 133.003 49.1278L132.938 49.1009ZM132.229 50.1862C131.93 50.4891 131.578 50.7296 131.174 50.9076L131.202 50.9714C131.615 50.7901 131.974 50.5446 132.279 50.2351L132.229 50.1862ZM131.174 50.9075C130.775 51.0811 130.344 51.168 129.884 51.168V51.2377C130.353 51.2377 130.793 51.149 131.202 50.9714L131.174 50.9075ZM129.884 51.168C129.427 51.168 128.997 51.0811 128.592 50.9075L128.565 50.9715C128.978 51.149 129.417 51.2377 129.884 51.2377V51.168ZM128.593 50.9077C128.192 50.7297 127.841 50.4891 127.538 50.186L127.489 50.2353C127.798 50.5446 128.157 50.79 128.564 50.9713L128.593 50.9077ZM127.538 50.1864C127.239 49.8793 127.003 49.5176 126.829 49.1009L126.764 49.1278C126.941 49.5521 127.183 49.9213 127.489 50.2349L127.538 50.1864ZM126.829 49.101C126.655 48.6809 126.568 48.2281 126.568 47.7424H126.498C126.498 48.2366 126.587 48.6985 126.764 49.1276L126.829 49.101ZM126.568 47.7424C126.568 47.2484 126.655 46.7916 126.829 46.3714L126.764 46.3448C126.587 46.7741 126.498 47.24 126.498 47.7424H126.568ZM126.829 46.3714C127.003 45.9507 127.239 45.5891 127.538 45.2863L127.489 45.2374C127.183 45.547 126.941 45.9163 126.764 46.3448L126.829 46.3714ZM127.538 45.2863C127.841 44.9792 128.192 44.7388 128.593 44.565L128.565 44.501C128.157 44.6783 127.798 44.9239 127.489 45.2374L127.538 45.2863ZM128.592 44.565C128.997 44.3914 129.427 44.3045 129.884 44.3045V44.2348C129.417 44.2348 128.978 44.3234 128.565 44.501L128.592 44.565ZM129.884 44.3045C130.345 44.3045 130.775 44.3873 131.175 44.5529L131.201 44.4885C130.792 44.3192 130.353 44.2348 129.884 44.2348V44.3045ZM131.175 44.553C131.579 44.7147 131.93 44.9468 132.229 45.2496L132.279 45.2006C131.973 44.8909 131.614 44.6535 131.201 44.4884L131.175 44.553ZM132.229 45.2497C132.528 45.5483 132.764 45.9098 132.938 46.3346L133.003 46.3082C132.826 45.8756 132.584 45.5061 132.279 45.2004L132.229 45.2497ZM132.938 46.3347C133.112 46.7546 133.199 47.2236 133.199 47.7424H133.268C133.268 47.2158 133.18 46.7375 133.003 46.3081L132.938 46.3347ZM131.584 47.7424C131.584 47.4689 131.539 47.2214 131.447 47.0002L131.383 47.0268C131.47 47.2385 131.514 47.4767 131.514 47.7424H131.584ZM131.447 47.0009C131.36 46.7765 131.239 46.5845 131.084 46.4257L131.034 46.4743C131.182 46.6259 131.298 46.8096 131.382 47.0262L131.447 47.0009ZM131.085 46.4261C130.93 46.2632 130.748 46.1399 130.539 46.0563L130.514 46.121C130.713 46.2009 130.886 46.3184 131.034 46.474L131.085 46.4261ZM130.54 46.0567C130.336 45.9689 130.116 45.9252 129.884 45.9252V45.9949C130.108 45.9949 130.317 46.0369 130.513 46.1207L130.54 46.0567ZM129.884 45.9252C129.65 45.9252 129.429 45.9689 129.221 46.0565L129.248 46.1208C129.447 46.0369 129.659 45.9949 129.884 45.9949V45.9252ZM129.221 46.0564C129.016 46.1399 128.837 46.2633 128.682 46.4261L128.733 46.474C128.881 46.3183 129.052 46.2007 129.247 46.1209L129.221 46.0564ZM128.682 46.4261C128.532 46.5848 128.413 46.7766 128.326 47.0009L128.391 47.0262C128.475 46.8094 128.59 46.6255 128.733 46.474L128.682 46.4261ZM128.326 47.0006C128.238 47.2218 128.195 47.4691 128.195 47.7424H128.265C128.265 47.4766 128.307 47.2381 128.391 47.0264L128.326 47.0006ZM128.195 47.7424C128.195 47.9995 128.238 48.2387 128.326 48.4595L128.391 48.4339C128.307 48.2219 128.265 47.9915 128.265 47.7424H128.195ZM128.326 48.4595C128.413 48.6797 128.532 48.8712 128.682 49.0338L128.733 48.9866C128.59 48.8307 128.475 48.6466 128.391 48.4339L128.326 48.4595ZM128.682 49.0342C128.836 49.1966 129.015 49.3257 129.22 49.4215L129.249 49.3584C129.053 49.2663 128.881 49.1422 128.733 48.9862L128.682 49.0342ZM129.22 49.4218C129.429 49.5137 129.65 49.5595 129.884 49.5595V49.4898C129.659 49.4898 129.448 49.4459 129.248 49.3581L129.22 49.4218ZM129.884 49.5595C130.116 49.5595 130.336 49.5158 130.54 49.4281L130.513 49.3641C130.317 49.4478 130.108 49.4898 129.884 49.4898V49.5595ZM130.54 49.4282C130.748 49.3406 130.93 49.2176 131.084 49.059L131.034 49.0104C130.886 49.1621 130.713 49.2799 130.513 49.3639L130.54 49.4282ZM131.084 49.059C131.239 48.9002 131.36 48.7083 131.447 48.4838L131.382 48.4586C131.298 48.6751 131.182 48.8589 131.034 49.0104L131.084 49.059ZM131.447 48.4843C131.539 48.2593 131.584 48.0117 131.584 47.7424H131.514C131.514 48.0038 131.47 48.2422 131.383 48.4581L131.447 48.4843ZM135.831 51.0804V51.1152H135.866V51.0804H135.831ZM134.159 51.0804H134.124V51.1152H134.159V51.0804ZM134.159 44.5207V44.4859H134.124V44.5207H134.159ZM134.563 44.5207L134.591 44.5006L134.581 44.4859H134.563V44.5207ZM135.114 45.2986L135.086 45.3187L135.109 45.3508L135.137 45.3243L135.114 45.2986ZM136.033 44.7351L136.045 44.7677V44.7675L136.033 44.7351ZM138.574 44.533H138.609V44.4981H138.574V44.533ZM138.574 46.1989V46.2337H138.609V46.1989H138.574ZM135.831 51.0455H134.159V51.1152H135.831V51.0455ZM134.194 51.0804V44.5207H134.124V51.0804H134.194ZM134.159 44.5556H134.563V44.4859H134.159V44.5556ZM134.535 44.5409L135.086 45.3187L135.142 45.2784L134.591 44.5006L134.535 44.5409ZM135.137 45.3243C135.404 45.0823 135.706 44.8967 136.045 44.7677L136.02 44.7025C135.673 44.8347 135.363 45.0248 135.091 45.2728L135.137 45.3243ZM136.045 44.7675C136.385 44.6344 136.735 44.5678 137.098 44.5678V44.4981C136.727 44.4981 136.367 44.5664 136.02 44.7027L136.045 44.7675ZM137.098 44.5678H138.574V44.4981H137.098V44.5678ZM138.539 44.533V46.1989H138.609V44.533H138.539ZM138.574 46.1641H137.098V46.2337H138.574V46.1641ZM137.098 46.1641C136.918 46.1641 136.748 46.1976 136.589 46.2648L136.616 46.329C136.767 46.2656 136.928 46.2337 137.098 46.2337V46.1641ZM136.589 46.2648C136.43 46.3318 136.291 46.4241 136.174 46.5418L136.223 46.591C136.334 46.48 136.465 46.3927 136.616 46.329L136.589 46.2648ZM136.174 46.5418C136.056 46.6594 135.964 46.798 135.897 46.9571L135.961 46.9841C136.024 46.833 136.112 46.702 136.223 46.591L136.174 46.5418ZM135.897 46.9571C135.829 47.1167 135.796 47.2867 135.796 47.4668H135.866C135.866 47.2956 135.898 47.1349 135.961 46.9841L135.897 46.9571ZM135.796 47.4668V51.0804H135.866V47.4668H135.796ZM139.059 51.0804H139.024V51.1152H139.059V51.0804ZM139.059 49.4144V49.3796H139.024V49.4144H139.059ZM139.665 48.0976L139.64 48.122L139.64 48.1222L139.665 48.0976ZM139.217 47.43L139.185 47.4435L139.186 47.4439L139.217 47.43ZM139.217 45.8008L139.185 45.7869V45.7873L139.217 45.8008ZM140.326 44.6983L140.34 44.7305V44.7303L140.326 44.6983ZM144.528 44.533H144.562V44.4981H144.528V44.533ZM144.528 46.1989V46.2337H144.562V46.1989H144.528ZM140.847 46.9216L140.822 46.9457L140.822 46.9463L140.847 46.9216ZM143.689 47.1911L143.676 47.2236L143.677 47.2238L143.689 47.1911ZM144.797 49.8126L144.829 49.8266V49.8264L144.797 49.8126ZM144.351 50.474L144.375 50.4986V50.4984L144.351 50.474ZM143.689 50.9211L143.702 50.9533V50.953L143.689 50.9211ZM142.88 51.0455H139.059V51.1152H142.88V51.0455ZM139.093 51.0804V49.4144H139.024V51.0804H139.093ZM139.059 49.4493H142.88V49.3796H139.059V49.4493ZM142.88 49.4493C143.004 49.4493 143.111 49.4047 143.199 49.3165L143.15 49.2673C143.075 49.3425 142.985 49.3796 142.88 49.3796V49.4493ZM143.199 49.3165C143.287 49.2285 143.332 49.1216 143.332 48.9979H143.262C143.262 49.1029 143.225 49.1921 143.15 49.2673L143.199 49.3165ZM143.332 48.9979C143.332 48.8711 143.287 48.7777 143.189 48.7334L143.16 48.7969C143.225 48.8262 143.262 48.888 143.262 48.9979H143.332ZM143.189 48.7334C143.101 48.6942 142.998 48.6752 142.88 48.6752V48.7449C142.991 48.7449 143.084 48.7627 143.16 48.7969L143.189 48.7334ZM142.88 48.6752H141.141V48.7449H142.88V48.6752ZM141.141 48.6752C140.856 48.6752 140.589 48.621 140.34 48.5128L140.312 48.5767C140.57 48.6889 140.847 48.7449 141.141 48.7449V48.6752ZM140.34 48.5128C140.091 48.4042 139.874 48.2576 139.689 48.073L139.64 48.1222C139.831 48.3133 140.055 48.4648 140.312 48.5767L140.34 48.5128ZM139.69 48.0733C139.505 47.8844 139.358 47.6655 139.25 47.4161L139.186 47.4439C139.298 47.7009 139.449 47.9269 139.64 48.122L139.69 48.0733ZM139.25 47.4165C139.146 47.1679 139.093 46.9009 139.093 46.6154H139.024C139.024 46.9097 139.077 47.1858 139.185 47.4435L139.25 47.4165ZM139.093 46.6154C139.093 46.3298 139.146 46.0629 139.25 45.8143L139.185 45.7873C139.077 46.045 139.024 46.3211 139.024 46.6154H139.093ZM139.25 45.8147C139.358 45.5654 139.505 45.3486 139.689 45.164L139.64 45.1147C139.449 45.3057 139.298 45.5299 139.186 45.7869L139.25 45.8147ZM139.689 45.164C139.874 44.9795 140.091 44.8349 140.34 44.7305L140.313 44.6662C140.056 44.7741 139.831 44.9236 139.64 45.1147L139.689 45.164ZM140.34 44.7303C140.589 44.622 140.856 44.5678 141.141 44.5678V44.4981C140.847 44.4981 140.57 44.5542 140.312 44.6664L140.34 44.7303ZM141.141 44.5678H144.528V44.4981H141.141V44.5678ZM144.493 44.533V46.1989H144.562V44.533H144.493ZM144.528 46.1641H141.141V46.2337H144.528V46.1641ZM141.141 46.1641C141.017 46.1641 140.91 46.2087 140.822 46.2967L140.872 46.3461C140.947 46.2708 141.036 46.2337 141.141 46.2337V46.1641ZM140.822 46.2967C140.734 46.3849 140.689 46.4917 140.689 46.6154H140.759C140.759 46.5104 140.797 46.4213 140.872 46.3461L140.822 46.2967ZM140.689 46.6154C140.689 46.7427 140.734 46.8535 140.822 46.9457L140.872 46.8976C140.797 46.8183 140.759 46.7249 140.759 46.6154H140.689ZM140.822 46.9463C140.91 47.0344 141.017 47.079 141.141 47.079V47.0093C141.036 47.0093 140.947 46.9722 140.872 46.897L140.822 46.9463ZM141.141 47.079H142.88V47.0093H141.141V47.079ZM142.88 47.079C143.162 47.079 143.427 47.1273 143.676 47.2236L143.701 47.1586C143.444 47.059 143.17 47.0093 142.88 47.0093V47.079ZM143.677 47.2238C143.926 47.3163 144.142 47.4467 144.327 47.615L144.374 47.5635C144.183 47.3888 143.958 47.2538 143.701 47.1585L143.677 47.2238ZM144.327 47.615C144.511 47.7832 144.657 47.9855 144.766 48.2223L144.829 48.1933C144.717 47.9484 144.565 47.7383 144.374 47.5635L144.327 47.615ZM144.766 48.2223C144.874 48.4583 144.928 48.7167 144.928 48.9979H144.997C144.997 48.7075 144.941 48.4392 144.829 48.1933L144.766 48.2223ZM144.928 48.9979C144.928 49.2833 144.874 49.5501 144.765 49.7986L144.829 49.8264C144.941 49.5687 144.997 49.2924 144.997 48.9979H144.928ZM144.765 49.7984C144.657 50.0438 144.51 50.2608 144.325 50.4496L144.375 50.4984C144.566 50.3034 144.717 50.0795 144.829 49.8266L144.765 49.7984ZM144.325 50.4494C144.141 50.634 143.924 50.7806 143.675 50.8891L143.702 50.953C143.96 50.8411 144.184 50.6897 144.375 50.4986L144.325 50.4494ZM143.675 50.889C143.427 50.9933 143.162 51.0455 142.88 51.0455V51.1152C143.171 51.1152 143.445 51.0613 143.702 50.9533L143.675 50.889Z" fill="#A0A0A0"/>
<defs>
<linearGradient id="paint0_linear" x1="-9.55735" y1="23.5885" x2="91.3038" y2="26.0286" gradientUnits="userSpaceOnUse">
<stop stop-color="#7381FF"/>
<stop offset="1" stop-color="#69591E"/>
</linearGradient>
</defs>
</svg>
